<?xml version="1.0" standalone="no"?>
<!DOCTYPE svg PUBLIC "-//W3C//DTD SVG 20010904//EN"
 "http://www.w3.org/TR/2001/REC-SVG-20010904/DTD/svg10.dtd">
<svg version="1.0" xmlns="http://www.w3.org/2000/svg"
 width="500.000000pt" height="351.000000pt" viewBox="0 0 500.000000 351.000000"
 preserveAspectRatio="xMidYMid meet">
<metadata>
Created by potrace 1.16, written by Peter Selinger 2001-2019
</metadata>
<g transform="translate(0.000000,351.000000) scale(0.100000,-0.100000)"
fill="#000000" stroke="none">
<path d="M2670 3064 c-240 -18 -344 -35 -389 -60 -88 -51 -112 -84 -141 -194
-10 -36 -54 -164 -100 -285 -45 -121 -101 -274 -125 -341 -23 -66 -54 -148
-68 -182 -14 -34 -22 -72 -20 -87 8 -37 -5 -109 -23 -131 -14 -17 -15 -14 -10
40 2 32 2 56 -1 52 -3 -3 -9 -35 -12 -71 -6 -55 -5 -65 8 -60 8 3 25 -4 38
-16 18 -18 23 -19 23 -7 0 9 -6 18 -12 21 -10 4 -10 7 0 18 6 7 12 23 12 35 0
38 33 128 57 154 13 14 23 35 23 47 0 13 12 57 26 99 20 60 23 79 13 85 -7 4
-17 5 -23 2 -5 -4 -7 1 -3 11 4 10 7 20 7 22 0 2 7 4 15 4 20 0 30 -62 16
-101 -6 -18 -11 -46 -11 -63 0 -17 -6 -42 -13 -57 -13 -24 -13 -25 15 -21 16
3 32 11 35 18 3 8 13 14 22 14 13 0 13 2 2 9 -43 27 155 14 290 -20 85 -21 90
-21 132 -5 24 9 54 28 67 41 31 33 21 31 -37 -5 -48 -31 -91 -37 -143 -20 -24
8 -24 8 -2 9 12 1 22 7 22 16 0 25 144 81 176 68 8 -3 14 -11 14 -19 0 -7 14
-20 30 -29 17 -9 30 -21 30 -27 0 -6 8 -17 18 -24 13 -11 14 -15 4 -22 -8 -6
13 -11 60 -15 68 -6 186 -32 197 -43 3 -3 -1 -9 -9 -14 -14 -9 -12 -17 22 -83
5 -11 7 -21 4 -24 -7 -8 -27 7 -21 16 5 9 -22 35 -46 44 -13 4 -16 -1 -15 -24
0 -16 4 -29 8 -29 5 0 7 -6 5 -12 -2 -14 51 -20 68 -8 6 4 27 11 49 14 l38 7
-6 50 c-4 27 -9 56 -12 64 -5 12 5 15 55 15 34 0 61 4 61 9 0 4 -22 6 -48 3
-67 -6 -72 4 -77 135 -8 209 -15 223 -122 244 -52 11 -69 19 -86 43 -37 49
-106 113 -142 130 -19 9 -37 22 -41 28 -4 7 -8 50 -9 97 -2 74 -5 87 -25 103
-12 10 -32 18 -44 18 -19 -1 -18 -3 7 -16 22 -12 28 -21 23 -37 -3 -12 -6 -25
-6 -28 0 -4 -10 -9 -21 -12 -16 -4 -20 -11 -15 -23 7 -19 -39 -68 -55 -58 -16
10 -9 24 16 34 15 6 25 17 25 30 0 17 -5 20 -27 16 -16 -2 -31 -5 -35 -5 -8
-1 -3 -61 8 -99 6 -19 0 -25 -48 -46 -54 -24 -108 -74 -108 -101 0 -7 -7 -18
-15 -25 -20 -17 -24 6 -28 200 -3 153 -2 167 17 195 55 80 93 99 226 110 41 3
109 11 150 16 92 12 242 11 640 -2 263 -8 315 -12 380 -31 98 -28 114 -44 112
-105 -2 -26 -7 -74 -13 -107 -6 -32 -17 -106 -25 -165 -8 -58 -17 -119 -19
-136 -3 -16 -14 -97 -25 -180 -20 -144 -36 -252 -46 -305 -4 -20 -2 -22 6 -10
8 11 9 -6 6 -60 -3 -41 -6 -88 -6 -105 -1 -29 -2 -29 -11 -7 -5 13 -7 28 -3
33 3 5 0 9 -6 9 -8 0 -10 -9 -6 -24 8 -32 -3 -59 -20 -52 -10 4 -14 -3 -14
-20 0 -23 3 -25 31 -19 21 5 34 3 39 -5 15 -24 76 -2 129 46 57 51 69 48 19
-4 -32 -33 -33 -33 -7 -23 15 5 36 7 48 4 12 -3 21 -1 21 6 0 7 25 11 70 11
39 0 70 3 70 8 -1 11 -26 42 -36 42 -5 0 -20 9 -34 20 -27 21 -45 26 -35 10 3
-5 -1 -10 -9 -10 -9 0 -16 7 -16 15 0 20 39 19 68 -1 12 -8 26 -13 31 -10 5 3
18 -16 29 -42 l21 -47 -22 -3 c-12 -2 -61 -19 -109 -38 -49 -19 -95 -34 -103
-34 -9 0 -12 -6 -9 -15 5 -13 2 -14 -22 -5 -15 6 -30 7 -33 2 -3 -5 -21 -12
-40 -16 -19 -3 -42 -13 -52 -22 -9 -8 -59 -24 -110 -34 l-94 -20 70 5 c39 3
87 8 108 11 33 5 37 4 37 -14 0 -12 5 -24 12 -28 6 -4 8 -3 4 4 -3 6 2 17 13
24 10 7 21 22 24 33 4 19 5 18 6 -2 0 -12 -6 -29 -15 -37 -14 -14 -13 -15 13
-12 71 9 103 19 103 32 0 10 7 13 23 9 13 -4 50 3 82 14 33 12 73 21 90 20 27
-1 25 -2 -15 -13 -60 -17 -175 -69 -162 -74 6 -2 29 6 51 17 22 12 48 20 58
19 10 -1 35 2 56 6 26 6 51 4 82 -6 37 -12 45 -13 49 -1 3 7 16 13 28 13 21 1
21 2 -7 17 -42 23 -45 30 -39 103 7 77 -6 101 -54 102 -32 1 -43 13 -20 20 11
4 -51 48 -68 48 -5 0 -10 10 -11 23 -10 129 -36 382 -52 512 -10 84 -27 228
-40 355 -5 43 -4 83 1 93 5 10 12 48 15 85 5 58 2 71 -16 94 -51 64 -213 108
-466 127 -153 12 -607 21 -695 15z m-482 -695 c-7 -5 87 -9 217 -10 127 0 241
-5 255 -9 18 -6 4 -8 -47 -9 -51 -1 -73 -5 -74 -13 0 -10 -2 -10 -6 0 -6 15
-293 18 -293 2 0 -5 -5 -10 -11 -10 -6 0 -9 7 -5 15 3 8 1 15 -4 15 -18 0 -30
-39 -30 -98 l0 -59 -54 -18 c-78 -27 -89 -19 -80 55 4 40 3 64 -5 74 -9 11 -8
17 4 30 12 12 13 16 3 16 -8 0 -9 3 -3 8 6 4 11 15 13 26 3 18 77 220 103 281
12 27 14 13 22 -129 7 -129 6 -160 -5 -167z m1617 219 c7 -67 25 -214 32 -253
3 -22 7 -55 7 -72 1 -18 3 -33 6 -33 3 0 4 -18 2 -40 -3 -25 0 -40 7 -40 6 0
11 -15 11 -32 0 -25 -3 -29 -10 -18 -7 10 -10 11 -10 2 0 -7 7 -15 15 -18 10
-4 15 -19 14 -43 -1 -32 -2 -34 -9 -11 -7 21 -8 21 -9 5 0 -11 2 -31 6 -43 4
-18 8 -20 14 -10 6 9 9 3 9 -17 0 -23 -3 -27 -10 -15 -8 12 -10 11 -10 -6 0
-12 8 -25 17 -28 15 -6 15 -8 3 -17 -12 -9 -13 -11 -1 -16 8 -3 10 -8 3 -12
-6 -3 -12 -30 -14 -58 -2 -28 -5 -50 -7 -47 -2 2 -30 -21 -62 -50 -31 -29 -78
-65 -103 -79 -65 -36 -69 -26 -56 114 6 63 13 120 15 127 3 7 14 77 25 155 20
140 43 269 76 437 9 47 18 102 21 123 6 44 13 42 18 -5z m-924 -289 c14 -5 27
-15 28 -22 7 -45 17 -171 16 -217 0 -52 -1 -55 -25 -55 -23 0 -26 5 -31 55 -9
79 -37 181 -57 210 -38 53 -38 53 4 46 21 -4 51 -11 65 -17z"/>
<path d="M3484 1783 c-11 -46 -40 -56 -139 -49 -62 4 -65 3 -27 -6 32 -7 42
-14 42 -29 0 -16 -5 -19 -20 -15 -11 3 -29 8 -40 12 -46 13 -126 21 -135 14
-14 -10 -98 -22 -93 -13 2 5 10 20 17 36 8 15 12 29 10 31 -4 4 -123 9 -171 7
-23 -1 -28 -6 -28 -26 0 -23 -2 -24 -21 -13 -17 11 -22 10 -35 -6 -8 -11 -14
-34 -13 -50 1 -31 1 -30 11 7 11 39 18 43 49 27 17 -10 18 -13 5 -33 -17 -26
-30 -87 -18 -87 4 0 13 5 20 12 16 16 16 1 0 -16 -10 -11 -23 -6 -68 24 -91
61 -107 64 -405 75 -77 2 -224 5 -327 5 -188 0 -188 0 -189 23 -1 15 -3 17 -6
6 -6 -23 -92 -37 -104 -17 -7 11 -12 11 -30 -1 -16 -10 -71 -14 -203 -16
l-180 -2 -47 44 c-56 52 -69 57 -23 7 19 -19 34 -39 34 -44 0 -5 10 -10 23
-12 22 -3 23 -24 0 -22 -6 1 -11 -7 -10 -17 1 -11 4 -19 8 -19 20 0 -19 -52
-43 -57 -22 -4 -27 -12 -33 -48 l-6 -44 -57 -8 c-31 -4 -132 -8 -224 -8 -93 1
-168 -3 -168 -8 0 -4 3 -6 8 -4 20 12 52 -15 63 -53 15 -49 24 -46 11 4 -9 32
-8 36 8 36 10 0 25 -9 33 -20 8 -11 35 -37 61 -56 25 -20 46 -43 46 -50 0 -8
5 -14 10 -14 22 0 8 30 -28 59 -59 50 -72 64 -66 70 3 3 60 7 126 8 66 1 132
4 146 8 l25 6 -18 -28 c-10 -15 -29 -40 -43 -55 l-26 -28 36 0 c71 0 106 31
111 98 2 29 55 49 64 24 10 -26 90 -149 102 -157 19 -11 12 3 -64 130 -41 68
-75 131 -75 138 0 18 39 67 40 50 0 -12 24 -12 36 0 4 4 -3 7 -16 7 -14 0 -20
4 -14 9 5 5 39 4 80 -1 59 -9 82 -7 140 8 54 14 124 19 327 23 143 3 262 4
267 1 4 -3 31 -59 60 -125 48 -110 70 -151 70 -131 0 4 -22 62 -50 128 -27 66
-50 124 -50 127 0 3 101 3 224 -1 207 -7 227 -9 279 -32 31 -13 75 -42 99 -63
67 -59 95 -81 80 -61 -12 15 -9 18 22 24 44 8 48 36 10 77 -14 15 -22 32 -19
37 4 6 -7 10 -24 10 -17 0 -31 4 -31 9 0 4 23 8 50 8 l50 0 0 -38 c0 -53 16
-90 35 -83 11 4 15 19 13 50 -1 28 -5 41 -12 37 -7 -4 -8 -2 -1 5 18 18 115
42 148 35 34 -6 87 -30 87 -39 0 -2 -9 0 -20 6 -11 6 -26 10 -33 9 -6 -1 -20
1 -29 5 -10 5 -23 6 -29 4 -21 -7 -62 -138 -44 -138 3 0 23 12 45 26 22 15 43
24 46 21 3 -3 -8 -13 -26 -22 -18 -9 -30 -18 -28 -20 8 -8 218 -11 218 -3 0 4
6 8 13 8 11 0 37 51 37 73 0 4 -18 10 -40 13 -22 4 -40 12 -40 18 0 6 -4 4
-10 -4 -5 -8 -12 -11 -16 -8 -3 4 -23 -4 -43 -17 -19 -14 -40 -25 -46 -25 -5
0 5 10 23 21 17 12 32 29 32 39 0 10 -14 24 -32 34 -48 23 -19 20 83 -10 50
-14 98 -23 107 -19 13 6 10 10 -17 19 -19 7 -37 19 -39 27 -4 11 -2 12 9 2 7
-7 27 -13 44 -13 24 0 27 2 15 11 -12 9 -12 10 3 5 10 -3 22 -6 25 -6 4 0 0
-4 -8 -10 -8 -5 -11 -12 -7 -16 3 -4 13 -2 20 5 8 6 23 9 33 5 18 -5 18 -5 1
6 -13 9 -17 24 -16 71 2 71 -4 82 -17 32z"/>
<path d="M781 1713 c13 -15 11 -16 -13 -11 -31 6 -36 -3 -12 -22 18 -16 74
-126 74 -146 0 -8 6 -14 13 -14 8 0 7 -4 -3 -10 -11 -7 -7 -10 17 -10 26 0 30
3 26 20 -3 11 0 20 6 20 6 0 11 5 11 11 0 5 -5 7 -11 3 -7 -4 -10 -1 -7 7 5
13 -18 66 -33 79 -13 11 -30 51 -25 59 10 16 109 20 137 5 58 -29 107 -115 78
-136 -11 -8 -10 -8 4 -4 10 3 22 6 27 6 26 0 -34 107 -78 139 -26 18 -44 21
-127 21 -90 0 -96 -1 -84 -17z"/>
<path d="M3940 1419 c-250 -113 -629 -233 -945 -298 -192 -39 -572 -100 -815
-130 -242 -30 -338 -41 -740 -80 -113 -12 -241 -25 -285 -31 -139 -18 -193
-14 -260 20 -33 16 -71 37 -85 46 -36 24 63 -68 140 -130 36 -29 79 -61 96
-71 17 -10 44 -39 61 -66 16 -27 52 -65 79 -86 27 -20 81 -70 119 -111 39 -41
79 -79 89 -84 11 -6 49 -10 85 -9 144 4 660 60 931 101 69 10 179 26 245 35
240 32 552 135 880 289 124 59 344 186 365 211 7 8 18 15 24 15 6 0 32 13 57
29 49 31 68 67 104 196 26 93 37 118 59 145 14 16 15 20 4 11 -15 -11 -24 -11
-58 3 -53 21 -95 20 -150 -5z"/>
</g>
</svg>
