<?xml version="1.0" standalone="no"?>
<!DOCTYPE svg PUBLIC "-//W3C//DTD SVG 20010904//EN"
 "http://www.w3.org/TR/2001/REC-SVG-20010904/DTD/svg10.dtd">
<svg version="1.0" xmlns="http://www.w3.org/2000/svg"
 width="1502.000000pt" height="1125.000000pt" viewBox="0 0 1502.000000 1125.000000"
 preserveAspectRatio="xMidYMid meet">
<metadata>
Created by potrace 1.16, written by Peter Selinger 2001-2019
</metadata>
<g transform="translate(0.000000,1125.000000) scale(0.100000,-0.100000)"
fill="#000000" stroke="none">
<path d="M7406 10339 c-1069 -53 -2097 -464 -2921 -1168 -55 -47 -165 -149
-244 -226 -611 -596 -1055 -1347 -1291 -2185 -71 -251 -135 -607 -160 -890
-15 -165 -21 -573 -10 -725 49 -681 208 -1281 498 -1870 364 -741 912 -1377
1600 -1858 332 -232 781 -463 1152 -592 552 -191 1047 -275 1625 -275 774 0
1444 154 2141 490 642 310 1221 774 1678 1345 746 933 1126 2105 1067 3291
-46 907 -318 1739 -814 2484 -379 569 -846 1032 -1422 1405 -160 104 -193 124
-378 221 -629 333 -1314 518 -2047 554 -225 11 -243 11 -474 -1z m475 -275
c175 -4 249 -3 253 5 4 6 14 11 22 11 12 0 13 -13 8 -72 -4 -40 -9 -75 -11
-78 -2 -2 -13 1 -24 8 -13 9 -87 15 -219 19 l-198 6 -7 -66 c-4 -36 -4 -70 0
-76 8 -15 271 -15 280 0 4 5 12 8 18 6 11 -3 12 -135 1 -146 -2 -2 -14 1 -27
7 -12 6 -79 13 -148 16 l-126 5 -8 -111 c-6 -96 -5 -113 9 -124 37 -26 17 -34
-71 -28 -111 7 -124 11 -100 28 15 12 19 45 28 287 10 251 9 274 -6 285 -27
20 -8 35 38 30 23 -3 153 -8 288 -12z m693 -72 c87 -17 121 -37 74 -44 -22 -3
-26 -17 -76 -272 -51 -255 -52 -269 -36 -287 9 -11 14 -22 11 -25 -10 -10
-207 28 -207 40 0 6 10 16 22 21 19 9 27 37 70 260 53 279 54 291 33 299 -21
8 -19 26 3 25 9 0 57 -8 106 -17z m-1889 -41 c-10 -44 142 -542 168 -549 33
-8 11 -26 -59 -49 -87 -28 -97 -28 -109 -1 -6 13 -99 72 -244 155 -128 73
-237 133 -241 133 -4 0 12 -64 36 -142 25 -79 52 -167 60 -197 11 -36 22 -55
35 -58 35 -9 15 -24 -61 -49 -94 -30 -93 -30 -86 4 9 40 -137 522 -164 541
-11 7 -20 17 -20 22 0 10 190 70 201 63 5 -2 6 -11 3 -18 -3 -8 73 -57 227
-145 127 -73 232 -131 234 -129 1 2 -22 85 -53 185 -42 140 -59 183 -73 186
-37 10 -18 26 59 50 99 32 95 32 87 -2z m2548 -147 c95 -21 183 -65 250 -125
30 -27 65 -49 76 -49 35 0 24 -22 -39 -78 -59 -53 -83 -60 -73 -23 8 30 -60
96 -135 133 -87 43 -188 51 -250 19 -74 -38 -117 -118 -110 -205 8 -95 66
-156 194 -202 36 -14 93 -27 125 -31 l59 -6 15 36 c8 20 15 40 15 45 0 5 -34
22 -76 37 -61 22 -81 26 -95 17 -36 -23 -36 7 3 97 l19 44 27 -25 c15 -14 59
-36 97 -51 203 -74 203 -74 165 -105 -24 -21 -70 -144 -63 -170 6 -23 -19 -32
-95 -32 -142 0 -351 78 -437 165 -65 64 -90 123 -89 210 0 145 89 265 224 301
62 17 109 17 193 -2z m-3498 -309 c125 -61 202 -228 166 -361 -32 -119 -176
-240 -346 -289 -151 -44 -297 28 -367 181 -32 70 -31 180 2 249 50 105 204
218 332 245 69 14 153 5 213 -25z m4261 -41 c35 -25 64 -49 64 -55 0 -5 -10
-13 -23 -18 -20 -8 -77 -79 -77 -96 0 -4 -12 -22 -26 -40 -29 -38 -26 -48 17
-70 16 -9 83 -54 150 -102 67 -48 124 -82 128 -77 36 40 111 156 111 172 0 37
20 34 91 -14 l69 -48 -24 -20 c-25 -21 -244 -330 -305 -430 -19 -31 -41 -56
-50 -56 -24 0 -121 68 -121 85 0 8 7 15 15 15 7 0 44 42 80 92 l66 93 -33 27
c-18 15 -37 28 -42 28 -4 0 -59 36 -121 80 -62 44 -117 80 -123 80 -19 0 -133
-170 -127 -190 10 -31 -15 -33 -53 -5 -20 15 -52 36 -69 47 -36 22 -44 48 -15
48 16 0 104 112 138 176 7 12 51 77 100 145 48 68 88 131 89 139 1 18 14 40
22 40 3 0 34 -20 69 -46z m-2086 -254 c467 -35 908 -146 1312 -331 1057 -484
1843 -1444 2102 -2569 157 -682 125 -1379 -94 -2040 -188 -570 -477 -1037
-910 -1470 -323 -324 -621 -538 -1015 -730 -373 -182 -749 -294 -1180 -351
-246 -33 -683 -33 -930 0 -715 95 -1321 352 -1894 802 -142 112 -455 426 -573
574 -481 605 -756 1297 -819 2060 -16 196 -6 598 20 790 163 1200 868 2230
1927 2813 616 339 1362 503 2054 452z m-2991 -164 c42 -22 98 -90 112 -135 23
-78 -16 -135 -230 -328 l-45 -40 23 -29 c52 -66 123 -134 141 -134 37 0 28
-18 -40 -78 -74 -67 -92 -75 -88 -38 4 32 -345 421 -378 421 -12 0 -25 3 -29
6 -10 11 330 312 386 342 57 30 106 34 148 13z m5771 -71 c0 -34 364 -399 391
-392 36 10 21 -33 -28 -78 -53 -49 -63 -53 -63 -28 0 19 -127 153 -145 153
-17 0 -343 -332 -338 -345 2 -7 0 -16 -6 -19 -12 -8 -133 113 -125 126 3 4 11
8 18 8 13 0 341 325 341 339 0 18 -127 141 -146 141 -31 0 -22 21 33 77 53 54
68 58 68 18z m-6411 -609 c42 -22 89 -81 97 -121 6 -36 2 -84 -11 -117 -7 -16
2 -18 101 -20 148 -3 155 -3 187 6 39 12 35 -3 -30 -93 -60 -83 -77 -95 -86
-61 -4 17 -14 20 -59 20 -29 0 -83 3 -119 6 l-66 7 -57 -77 c-31 -42 -56 -79
-56 -84 0 -4 36 -33 80 -65 56 -41 86 -56 99 -52 38 12 31 -16 -25 -90 -54
-71 -74 -84 -74 -47 0 10 -80 75 -207 167 -183 133 -222 158 -271 171 -13 4
205 312 272 382 23 24 57 52 76 62 42 23 111 25 149 6z m7245 -346 c80 -121
152 -220 160 -220 33 0 22 -19 -35 -58 -33 -23 -65 -42 -70 -42 -5 0 -9 12 -9
26 0 27 -185 324 -202 324 -13 0 -108 -64 -108 -73 0 -18 134 -206 151 -210
30 -8 23 -20 -41 -60 -60 -39 -82 -42 -74 -9 3 10 -24 59 -64 119 l-68 102
-67 -42 c-37 -23 -66 -47 -64 -53 1 -6 47 -79 102 -162 63 -96 107 -152 119
-154 36 -6 27 -25 -29 -61 -61 -41 -75 -45 -75 -20 0 9 -67 119 -150 245 -82
126 -150 231 -150 234 0 2 11 4 25 4 32 0 475 294 475 315 0 43 41 -6 174
-205z m416 -772 c82 -208 84 -215 85 -300 0 -78 -2 -89 -25 -113 -75 -82 -189
-84 -265 -5 -16 17 -32 30 -36 30 -13 0 -149 -216 -149 -237 0 -27 -14 -37
-27 -20 -13 17 -73 169 -73 185 0 8 9 12 22 10 17 -2 35 16 90 92 37 52 68
100 68 107 0 25 -64 173 -75 173 -6 0 -49 -15 -96 -34 -55 -22 -87 -41 -94
-55 -5 -11 -14 -20 -18 -18 -8 2 -77 161 -77 175 0 2 11 1 24 -2 34 -8 530
185 534 208 9 45 36 -1 112 -196z m-8083 177 c164 4 306 11 316 16 35 20 35
-3 -2 -86 -21 -47 -40 -88 -44 -91 -3 -3 -15 4 -26 15 -24 24 -112 30 -128 9
-5 -7 -35 -71 -67 -141 -62 -141 -62 -129 -2 -194 23 -26 32 -30 43 -21 9 7
17 8 24 1 12 -12 -59 -173 -78 -173 -7 0 -13 9 -13 19 0 11 -68 97 -151 193
-194 221 -249 278 -264 271 -27 -10 -24 18 12 99 47 107 53 115 70 93 11 -16
34 -17 310 -10z m-547 -604 c19 -5 47 -12 63 -15 31 -7 34 -19 9 -44 -20 -20
-58 -181 -45 -192 4 -4 109 -30 232 -59 175 -40 227 -49 238 -40 26 22 30 -6
10 -88 -19 -82 -29 -96 -51 -69 -10 12 -463 123 -471 114 -1 -1 -12 -45 -24
-97 -16 -69 -18 -97 -10 -107 19 -23 2 -32 -43 -22 -102 24 -118 29 -118 39 0
5 10 13 22 18 19 7 29 37 80 252 60 254 65 284 48 294 -16 10 -12 25 8 25 9 0
33 -4 52 -9z m8808 -348 c63 -51 92 -115 113 -247 9 -56 8 -86 -6 -162 -9 -51
-14 -102 -10 -113 3 -10 2 -22 -3 -25 -11 -7 -135 39 -140 52 -2 6 6 20 16 30
22 22 42 101 42 160 0 51 -24 146 -44 177 -11 17 -25 25 -45 25 -50 0 -54 -16
-55 -198 -2 -148 -4 -172 -23 -214 -34 -74 -111 -110 -192 -88 -53 14 -115 79
-140 145 -38 100 -45 177 -31 315 7 69 14 128 16 132 2 3 28 0 57 -7 28 -7 64
-16 80 -19 31 -7 36 -31 8 -39 -43 -11 -56 -53 -56 -177 0 -104 2 -119 25
-160 31 -54 69 -73 99 -46 17 16 19 35 23 189 3 160 5 176 28 222 32 64 74 88
148 82 40 -3 61 -11 90 -34z m-8335 -1370 c4 -3 0 -14 -9 -24 -15 -17 -13 -36
26 -261 52 -300 48 -286 72 -293 37 -12 11 -30 -62 -42 -82 -14 -95 -11 -78
17 9 14 8 39 -4 110 -9 51 -19 94 -21 96 -2 2 -109 -14 -237 -37 -173 -30
-237 -45 -246 -57 -18 -24 -25 -11 -40 70 -18 103 -18 101 13 93 27 -6 450 61
474 75 18 12 -10 179 -34 203 -24 24 -18 30 56 43 81 15 83 15 90 7z m7933
-249 c56 -47 68 -74 35 -74 -41 0 -102 -100 -127 -207 -18 -80 -12 -127 20
-148 46 -30 67 -3 132 168 63 165 119 227 203 227 113 0 181 -85 181 -224 0
-110 -51 -259 -121 -357 -10 -15 -19 -34 -19 -43 0 -25 -20 -19 -85 27 -65 46
-77 72 -33 72 37 1 60 25 104 108 30 58 38 85 42 142 5 85 -8 122 -44 131 -38
10 -64 -23 -103 -128 -52 -137 -74 -181 -115 -225 -44 -49 -87 -62 -146 -44
-88 26 -133 96 -133 206 -1 116 31 215 106 324 16 24 31 53 32 65 4 37 6 36
71 -20z m-8356 -664 c19 -4 91 -11 160 -15 69 -3 184 -11 257 -16 117 -9 135
-8 158 7 25 16 25 16 40 -19 62 -149 69 -186 33 -172 -16 6 -396 -386 -431
-443 -11 -18 -23 -30 -27 -25 -9 10 -70 169 -70 182 0 6 12 8 28 5 25 -5 34 0
66 37 22 27 34 49 30 59 -3 8 -26 69 -51 135 -25 66 -48 123 -52 126 -3 4 -32
9 -64 13 -54 6 -59 5 -64 -14 -9 -36 -27 -16 -59 68 -32 81 -33 98 -5 86 9 -3
32 -10 51 -14z m8208 -116 c77 -32 112 -88 112 -182 0 -36 3 -43 18 -38 9 2
64 12 122 21 58 10 117 24 132 33 15 9 30 13 34 9 8 -8 -75 -197 -87 -197 -4
0 -12 8 -17 17 -9 16 -18 16 -131 -2 l-122 -19 -39 -84 c-22 -47 -40 -87 -40
-89 0 -2 43 -25 95 -49 77 -37 99 -43 110 -34 12 10 16 9 20 -2 6 -16 -60
-168 -74 -168 -4 0 -15 9 -22 20 -21 30 -486 241 -515 234 -13 -3 -24 -3 -24
0 0 8 134 305 171 378 72 142 158 194 257 152z m-7244 -652 c65 -101 126 -208
137 -237 35 -101 20 -162 -53 -215 -58 -42 -134 -42 -200 -1 l-46 30 -52 -122
c-28 -67 -50 -133 -48 -146 6 -49 -22 -30 -76 54 -31 47 -56 90 -56 95 0 6 11
10 24 10 20 0 30 14 70 108 25 59 46 111 46 115 0 4 -23 42 -51 83 -34 50 -55
74 -65 70 -36 -14 -164 -108 -164 -121 0 -36 -23 -20 -65 45 -55 85 -57 94
-25 95 37 2 470 284 481 314 6 13 13 20 18 15 4 -5 61 -91 125 -192z m6806
-142 c0 -4 -10 -10 -22 -13 -15 -4 -62 -59 -128 -149 -58 -78 -105 -146 -105
-150 0 -8 91 -78 102 -78 17 1 153 198 147 213 -11 31 14 25 69 -15 32 -23 57
-47 57 -53 0 -5 -10 -15 -22 -20 -23 -10 -159 -184 -155 -197 4 -14 112 -89
123 -86 22 5 224 287 224 312 0 12 3 25 6 29 7 7 124 -73 124 -85 0 -4 -9 -12
-20 -18 -10 -6 -91 -107 -180 -226 -145 -194 -180 -231 -180 -189 0 21 -436
341 -460 337 -11 -2 -20 2 -20 8 0 5 70 104 155 219 85 115 155 218 155 228 0
11 3 22 6 26 7 7 124 -80 124 -93z m-6099 -735 c36 -63 38 -113 4 -171 -31
-53 -106 -104 -153 -104 -58 0 -102 30 -225 149 l-118 115 -79 -79 c-58 -57
-78 -84 -74 -97 11 -35 -21 -18 -83 44 -66 66 -80 94 -40 84 19 -4 52 24 216
188 145 145 192 198 187 211 -20 52 24 20 171 -126 91 -90 178 -186 194 -214z
m5523 81 c25 -30 46 -57 46 -60 0 -3 -10 -6 -22 -6 -25 0 -164 -116 -162 -135
2 -23 299 -356 322 -362 13 -3 22 -9 20 -13 -6 -14 -123 -110 -135 -110 -7 0
-12 8 -10 18 1 10 -23 47 -54 83 -31 35 -100 115 -154 177 -60 69 -103 111
-111 108 -30 -12 -142 -112 -145 -131 -6 -32 -25 -24 -73 33 -52 61 -57 75
-21 66 20 -5 38 6 103 62 43 38 100 88 127 111 28 23 68 58 90 78 22 20 55 48
73 62 20 16 32 34 32 49 0 38 24 28 74 -30z m-5173 -372 c134 -40 261 -139
314 -248 105 -216 -93 -480 -327 -436 -113 22 -258 112 -323 201 -98 132 -84
291 35 410 80 80 187 106 301 73z m4541 -108 c-2 -9 11 -43 28 -74 53 -96 76
-135 100 -177 35 -59 71 -125 91 -166 10 -21 33 -51 50 -68 17 -18 30 -33 28
-35 -8 -7 -151 -86 -156 -86 -2 0 -3 10 -2 23 2 12 -11 47 -29 77 -18 30 -40
72 -50 92 -20 45 -33 46 -92 12 -25 -15 -63 -36 -85 -49 -73 -40 -144 -82
-173 -101 -5 -4 56 -123 81 -159 12 -16 28 -36 37 -42 13 -11 12 -15 -10 -32
-41 -33 -120 -72 -131 -65 -5 3 -7 14 -4 25 4 11 -1 31 -12 47 -10 15 -32 51
-47 81 -16 29 -44 79 -62 110 -18 31 -50 89 -71 130 -20 41 -52 89 -70 107
l-33 33 27 20 c14 12 30 21 35 21 5 0 25 11 45 25 39 26 53 25 53 -5 0 -23 51
-124 83 -164 l22 -28 65 37 c36 21 81 47 100 58 19 11 59 34 87 49 29 16 55
33 58 38 7 12 -76 170 -97 183 -10 7 -18 15 -18 19 0 10 133 88 145 84 6 -2 9
-11 7 -20z m-3840 -276 c46 -17 89 -33 96 -35 9 -3 10 -9 1 -23 -9 -15 7 -60
92 -260 57 -133 106 -238 110 -234 4 4 35 83 69 176 50 136 60 173 51 187 -19
31 7 32 85 4 44 -16 74 -33 74 -41 0 -8 -6 -14 -14 -14 -8 0 -17 -8 -21 -17
-4 -10 -47 -128 -96 -262 -67 -181 -87 -247 -79 -256 22 -27 -12 -26 -88 1
-92 33 -89 31 -76 52 9 13 -12 70 -99 275 -61 141 -114 254 -118 250 -4 -5
-37 -89 -74 -188 -53 -145 -64 -184 -55 -198 6 -10 8 -22 5 -26 -5 -8 -149 40
-163 54 -4 4 3 14 15 23 30 24 209 517 194 536 -9 10 -6 26 5 26 1 0 40 -14
86 -30z m3086 -209 c-8 -36 -19 -66 -26 -69 -7 -2 -12 3 -12 11 0 47 -175 49
-273 3 -109 -52 -160 -140 -138 -239 32 -146 152 -200 322 -147 69 21 156 71
165 95 8 20 -16 87 -30 82 -6 -2 -41 -14 -79 -26 -39 -13 -71 -31 -77 -42 -17
-31 -28 -22 -44 36 -9 30 -19 62 -23 71 -5 14 -2 16 21 12 17 -4 80 11 168 38
77 24 142 44 145 44 3 0 3 -12 0 -26 -6 -32 33 -157 59 -185 l19 -21 -54 -49
c-158 -141 -437 -201 -580 -124 -97 53 -152 152 -154 276 -2 119 70 222 202
289 89 44 161 60 278 60 70 0 104 4 110 13 14 21 14 -34 1 -102z m-838 -90 c0
-5 -9 -15 -20 -22 -19 -14 -19 -17 18 -283 35 -253 38 -269 60 -277 41 -16 22
-27 -65 -39 -49 -6 -95 -14 -105 -16 -25 -7 -32 15 -10 34 20 17 20 19 -18
287 -21 149 -39 271 -39 273 -1 1 -10 2 -22 2 -12 0 -19 5 -17 13 7 20 218 47
218 28z m-400 -96 c0 -74 -9 -91 -35 -66 -6 5 -103 13 -217 17 l-208 7 0 -76
0 -75 128 -4 c89 -3 133 0 148 9 12 6 24 9 28 6 8 -8 8 -138 0 -146 -4 -3 -16
0 -28 8 -15 11 -52 15 -147 15 l-126 0 -7 -37 c-3 -21 -6 -71 -6 -111 0 -55 4
-74 15 -78 8 -4 15 -12 15 -20 0 -11 -20 -14 -93 -14 -52 0 -97 3 -100 7 -4 3
0 14 8 23 13 14 17 65 22 290 6 249 5 273 -11 282 -45 25 4 29 284 22 211 -5
289 -4 294 5 4 6 14 11 22 11 11 0 14 -16 14 -75z"/>
<path d="M5475 9387 c-86 -33 -157 -110 -171 -184 -33 -177 153 -302 324 -217
178 89 190 327 20 399 -43 18 -130 19 -173 2z"/>
<path d="M7835 9031 c-95 -57 -207 -233 -241 -376 -27 -115 -16 -255 29 -385
42 -120 45 -157 17 -193 -26 -33 -25 -40 3 -26 40 21 65 50 60 70 -7 25 -1 24
42 -6 159 -107 371 -92 511 37 47 43 64 45 44 6 -21 -40 -63 -78 -107 -98 -31
-13 -43 -25 -43 -39 0 -58 99 7 181 117 28 37 46 52 63 52 22 0 36 16 36 41 0
5 -7 9 -15 9 -67 0 109 146 280 233 82 41 108 64 135 117 11 22 27 40 35 40
26 0 115 71 115 91 0 26 -7 24 -50 -13 -20 -18 -51 -41 -69 -50 -18 -10 -36
-31 -42 -47 -6 -16 -27 -41 -48 -55 -54 -37 -80 -34 -44 6 9 10 13 21 9 25 -3
4 -41 -27 -84 -69 -42 -42 -97 -90 -122 -108 l-45 -32 -6 67 c-9 103 -22 99
-51 -17 -28 -113 -46 -164 -54 -156 -3 3 5 41 17 84 38 143 37 365 -3 509
l-11 40 -8 -30 c-3 -16 -7 -49 -8 -73 -1 -54 -17 -47 -25 13 -9 57 -24 67 -28
18 l-3 -37 -25 38 c-33 50 -127 119 -198 147 -41 16 -80 22 -139 23 -78 1
-103 9 -68 22 18 7 20 24 3 24 -7 0 -27 -8 -43 -19z m45 -78 c-1 -5 -24 -19
-53 -33 -39 -19 -51 -30 -49 -44 2 -10 -5 -24 -16 -32 -23 -16 -82 -105 -82
-123 0 -7 36 21 80 62 44 41 107 94 141 116 80 53 136 56 227 11 97 -49 149
-121 178 -247 21 -97 34 -133 46 -133 11 0 6 111 -7 143 -11 27 11 20 23 -8
15 -33 15 -168 1 -237 -23 -108 -95 -219 -175 -269 -33 -20 -36 -20 -48 -3
-12 16 -14 16 -30 -9 -27 -40 -92 -67 -162 -67 -103 0 -208 64 -257 155 -20
36 -22 55 -22 190 0 171 10 201 84 268 88 79 192 108 263 71 l30 -16 -23 -25
c-21 -21 -29 -24 -64 -18 -124 21 -179 -19 -214 -157 -15 -60 -22 -74 -41 -76
-13 -2 -20 -9 -16 -17 3 -8 11 -41 18 -75 12 -58 28 -81 28 -40 0 11 4 20 9
20 4 0 11 -27 14 -61 3 -36 12 -68 22 -79 24 -26 80 -43 124 -37 69 9 240 68
269 92 39 33 56 96 50 193 -7 125 -79 252 -177 312 -41 25 -51 40 -28 40 29 0
80 -45 153 -134 43 -52 82 -93 86 -89 12 6 1 75 -19 126 -22 53 -93 113 -153
127 -103 25 -256 -34 -362 -137 -65 -64 -77 -94 -85 -217 -3 -58 -9 -103 -13
-101 -15 9 -20 125 -10 191 22 135 120 319 190 356 36 18 70 24 70 11z"/>
<path d="M8758 8951 c-2 -39 -8 -57 -21 -65 -15 -9 -22 -7 -34 12 -33 48 -87
16 -97 -59 -8 -60 -34 -129 -48 -129 -6 0 -8 10 -4 23 13 42 36 152 36 170 0
9 -7 17 -15 17 -15 0 -21 -16 -29 -88 -2 -24 -11 -51 -20 -61 -11 -12 -19 -54
-26 -145 -6 -70 -8 -131 -5 -137 10 -15 25 0 25 26 0 35 28 101 67 161 28 44
183 193 270 261 31 24 24 45 -8 25 -18 -12 -21 -11 -26 7 -6 23 -18 27 -28 10
-5 -6 -12 -4 -20 8 -12 16 -14 12 -17 -36z"/>
<path d="M5863 8688 c3 -13 8 -34 12 -48 4 -17 -1 -13 -15 13 -20 36 -49 47
-42 16 10 -43 157 -357 160 -341 4 23 -17 117 -60 270 -21 77 -36 112 -46 112
-10 0 -13 -7 -9 -22z"/>
<path d="M9091 8595 c-35 -62 -37 -72 -17 -112 8 -15 17 -36 20 -46 8 -25 34
-32 54 -14 9 8 37 26 62 39 40 20 45 28 48 60 3 32 -3 44 -39 83 -60 65 -87
63 -128 -10z"/>
<path d="M5602 8551 c-21 -13 155 -386 217 -461 43 -51 46 -33 6 42 -19 36
-71 143 -116 239 -44 96 -84 177 -87 181 -4 4 -13 4 -20 -1z"/>
<path d="M6769 8523 c-20 -21 -46 -56 -59 -78 -27 -47 -211 -527 -205 -533 13
-14 38 34 90 171 32 83 62 156 67 162 18 21 -73 -249 -107 -316 -10 -19 -27
-44 -38 -57 -16 -17 -18 -25 -9 -31 9 -6 7 -12 -8 -26 -20 -18 -20 -18 -19 41
0 32 4 86 8 119 5 40 4 62 -3 67 -14 9 -12 149 3 205 6 23 21 52 32 65 17 19
20 19 15 4 -16 -48 -28 -106 -24 -116 2 -7 19 24 37 69 18 44 40 86 49 93 14
11 15 10 8 -7 -4 -11 -28 -78 -52 -150 -25 -71 -47 -136 -49 -142 -10 -30 6
-9 29 35 50 98 161 391 152 400 -11 10 -66 -21 -103 -59 -21 -21 -41 -39 -45
-39 -18 0 -6 70 17 104 27 40 21 46 -18 16 -35 -28 -51 -85 -82 -292 -26 -169
-26 -181 -11 -245 9 -39 11 -73 6 -82 -8 -14 -20 17 -32 82 -6 33 -22 19 -35
-30 -22 -79 -41 -184 -47 -258 -4 -38 -9 -85 -12 -102 -6 -40 11 -44 21 -5 7
31 44 74 56 66 4 -2 0 -24 -10 -47 -50 -118 -187 -554 -177 -564 1 -1 18 0 37
3 27 5 40 14 53 39 20 37 96 115 96 98 0 -6 -21 -39 -46 -73 -25 -34 -43 -64
-40 -67 14 -15 52 16 91 75 56 85 141 171 228 229 37 24 67 48 67 53 0 5 17
17 37 27 20 10 39 24 41 32 4 11 -5 9 -32 -7 -34 -20 -36 -21 -26 -2 6 11 43
38 83 61 155 89 334 213 367 254 19 24 22 26 -165 -94 -340 -217 -505 -332
-520 -361 -9 -17 -20 -30 -25 -30 -17 0 -11 53 9 86 22 37 20 35 211 161 170
112 485 346 472 351 -13 4 -210 -114 -320 -192 -51 -36 -97 -66 -102 -66 -5 0
-13 12 -16 26 -6 25 -8 23 -33 -27 -24 -49 -74 -100 -86 -87 -3 2 8 56 25 119
47 180 38 174 -35 -23 -27 -71 -51 -128 -55 -128 -4 0 -11 19 -15 43 l-8 42
-8 -30 c-5 -16 -14 -50 -20 -75 -8 -33 -25 -59 -63 -96 -28 -29 -64 -71 -79
-94 -16 -23 -31 -40 -33 -37 -4 4 81 265 111 339 9 22 42 33 59 19 11 -9 17 2
31 54 10 36 16 68 13 71 -3 3 -20 -13 -38 -36 -35 -44 -55 -45 -39 -2 15 40
45 68 256 239 105 85 195 163 198 172 26 64 124 365 120 369 -8 8 -62 -121
-97 -231 -25 -80 -41 -111 -72 -145 -38 -41 -144 -112 -168 -112 -21 0 46 62
100 92 29 17 60 41 68 54 21 30 145 356 139 362 -4 5 -67 -123 -118 -242 -43
-101 -27 -17 22 110 88 229 66 198 -44 -61 -74 -173 -85 -193 -85 -153 0 15 5
30 10 33 6 3 10 14 10 23 0 25 -14 3 -40 -60 -12 -32 -26 -58 -31 -58 -5 0 3
30 17 68 65 170 134 365 131 369 -2 2 -61 -135 -131 -304 -70 -170 -132 -312
-137 -317 -22 -24 -2 39 106 329 64 169 114 312 113 317 -2 5 -19 -8 -39 -29z"/>
<path d="M5494 8476 c-6 -15 71 -195 336 -786 292 -651 505 -1116 778 -1695
121 -257 125 -265 133 -265 4 0 10 21 14 46 8 59 80 198 134 263 116 138 326
240 495 241 42 0 47 2 41 18 -32 81 -49 133 -69 212 -21 84 -25 92 -57 108
-76 38 -89 139 -38 293 26 79 30 106 27 168 -3 65 -7 76 -31 97 -26 22 -35 44
-19 44 19 0 122 116 157 176 l38 64 121 0 c169 0 357 31 480 79 59 24 135 -20
179 -103 37 -71 30 -147 -31 -302 -28 -71 -56 -152 -63 -178 -23 -90 8 -252
61 -319 25 -32 25 -37 0 -37 -33 0 -94 -36 -128 -74 -31 -36 -56 -102 -48
-127 2 -8 7 -26 10 -41 8 -38 52 -85 99 -110 35 -18 53 -20 117 -15 66 5 80 3
114 -16 110 -63 169 -259 169 -562 0 -175 -18 -297 -70 -460 -96 -307 -111
-428 -91 -754 15 -263 15 -798 -1 -1011 -43 -576 -167 -1233 -301 -1587 -22
-58 -39 -108 -37 -109 1 -1 17 1 36 4 l34 7 35 130 c18 72 35 131 36 132 1 1
34 -13 73 -32 81 -38 98 -59 108 -126 9 -58 20 -78 35 -63 9 9 9 22 1 50 -18
65 -15 84 15 84 42 0 66 -18 63 -48 -2 -15 0 -33 4 -40 9 -14 103 -17 111 -3
3 5 -15 25 -39 46 -25 20 -54 53 -64 74 -26 49 -57 219 -43 233 15 15 28 -17
36 -87 4 -33 16 -78 27 -100 21 -43 140 -145 168 -145 9 0 36 25 59 55 48 61
67 67 114 34 25 -18 36 -20 67 -13 20 5 36 13 36 18 0 4 -28 18 -62 31 -124
44 -261 154 -337 270 -57 84 -60 80 56 80 104 0 111 2 211 53 11 6 8 -33 -4
-45 -23 -23 -4 -35 23 -14 25 20 68 29 68 14 0 -5 -16 -21 -35 -36 -40 -32
-71 -85 -58 -98 10 -10 95 73 105 101 3 8 9 12 13 8 5 -5 3 -19 -3 -33 -11
-24 0 -36 13 -15 5 8 11 7 21 -1 8 -6 29 -15 47 -18 30 -7 32 -10 30 -47 -4
-51 20 -131 50 -168 20 -24 26 -27 44 -18 l20 11 -23 49 c-22 46 -43 132 -32
132 3 0 29 -31 57 -70 59 -79 65 -84 86 -73 12 7 9 17 -20 60 -57 84 -48 88
74 32 71 -33 80 -34 105 -16 15 11 16 16 2 47 -8 19 -17 57 -22 85 -6 46 -6
49 9 36 11 -8 17 -28 17 -52 0 -22 5 -39 10 -39 6 0 10 11 10 25 0 48 61 59
108 20 34 -29 45 -31 61 -11 9 11 3 18 -34 36 -26 12 -68 40 -95 61 -49 39
-130 132 -130 150 0 5 37 -20 82 -56 82 -64 221 -145 251 -145 24 0 31 19 10
26 -60 19 -147 72 -188 114 l-48 49 24 10 c225 97 279 118 279 108 0 -7 -23
-61 -50 -121 -56 -122 -53 -116 -41 -116 6 0 31 29 58 65 26 35 49 62 51 60 3
-2 -1 -25 -7 -51 -7 -25 -10 -48 -7 -51 2 -2 19 21 37 51 19 31 37 56 41 56
12 0 9 -38 -4 -60 -12 -19 -3 -43 10 -25 4 6 24 19 45 29 54 28 64 43 41 60
-16 12 -17 17 -5 39 13 24 11 29 -13 58 -41 48 -58 88 -51 116 5 20 2 24 -12
21 -31 -6 -22 -80 15 -134 35 -49 39 -64 18 -64 -34 0 -76 75 -91 162 -5 35
-3 39 27 58 18 11 42 20 54 20 22 0 104 -82 104 -104 0 -7 -11 -23 -25 -36
-17 -16 -21 -26 -14 -31 20 -12 49 3 65 32 17 34 24 37 24 10 0 -10 -16 -43
-35 -72 -40 -58 -32 -83 14 -49 22 15 45 76 145 376 65 198 124 366 132 374
18 21 38 154 31 212 -7 54 -1 59 33 23 19 -20 24 -37 24 -81 1 -49 -2 -58 -20
-64 -17 -7 -23 -20 -28 -64 -5 -39 -12 -56 -22 -56 -8 0 -14 -2 -14 -4 0 -3
-29 -131 -65 -286 -36 -155 -65 -287 -65 -293 0 -7 5 -6 14 3 7 8 21 47 29 85
17 75 35 130 42 124 2 -2 -3 -33 -10 -69 -8 -36 -14 -74 -15 -84 0 -18 1 -18
20 -1 25 23 26 25 54 193 13 79 26 146 30 149 3 4 3 -54 0 -128 l-6 -134 22
21 c21 21 22 30 27 250 2 126 7 235 9 243 12 38 23 -17 29 -144 3 -77 8 -169
11 -205 l6 -65 19 25 c11 14 31 37 45 52 l26 27 -16 118 c-41 314 -37 293 -64
286 -22 -5 -23 -3 -17 18 4 13 16 36 26 50 20 29 104 77 115 66 9 -9 -14 -35
-47 -53 -43 -22 -51 -44 -35 -100 8 -27 28 -111 46 -186 29 -126 42 -157 52
-127 2 6 -7 61 -19 122 -13 62 -23 122 -23 134 0 22 0 23 32 4 27 -15 36 -29
53 -86 25 -83 49 -100 44 -32 -2 25 -1 43 4 40 4 -2 7 -11 7 -19 0 -8 4 -14 9
-14 19 0 29 28 34 100 7 96 46 200 128 340 237 403 243 420 278 761 23 219 45
313 88 391 27 48 56 76 166 159 15 11 27 30 27 42 0 22 -1 21 -20 -3 -26 -35
-34 -20 -21 40 14 63 14 289 1 310 -5 8 -10 13 -11 10 0 -3 -6 -79 -13 -170
-11 -135 -17 -173 -36 -210 -22 -45 -58 -90 -70 -90 -4 0 -10 145 -14 323 -3
177 -10 345 -14 372 l-8 50 -8 -77 c-5 -42 -6 -80 -3 -85 3 -5 2 -137 -2 -293
-6 -234 -10 -291 -23 -316 -17 -31 -45 -60 -52 -53 -3 2 6 67 19 144 12 77 25
168 29 203 l6 63 -30 -23 c-28 -22 -29 -27 -29 -105 -1 -108 -18 -224 -42
-289 -19 -51 -81 -120 -98 -110 -4 3 2 56 15 118 26 130 56 349 49 356 -3 3
-5 0 -5 -6 0 -7 -5 -12 -10 -12 -6 0 -9 27 -8 68 4 103 -1 212 -10 212 -4 0
-18 -141 -30 -312 -13 -172 -28 -337 -34 -367 -12 -64 -52 -111 -92 -111 -14
0 -26 2 -26 4 0 2 11 34 26 71 51 136 106 479 84 523 -3 7 -28 -94 -54 -225
-62 -314 -68 -334 -111 -372 -20 -17 -47 -31 -61 -31 l-26 0 20 33 c50 85 61
107 86 169 41 105 66 239 66 361 0 59 -3 107 -7 107 -5 0 -34 -41 -67 -90 -68
-105 -160 -208 -223 -251 -24 -17 -92 -55 -151 -84 -149 -74 -192 -123 -192
-220 0 -37 6 -50 35 -79 39 -39 158 -83 195 -71 25 8 42 38 34 60 -6 14 -9 14
-23 2 -21 -19 -58 -30 -65 -19 -3 5 43 52 103 104 59 52 147 140 197 196 49
55 90 99 92 97 7 -7 -42 -133 -88 -225 -43 -87 -90 -143 -107 -127 -3 4 2 17
13 30 29 32 47 77 31 77 -23 0 -113 -132 -102 -150 11 -18 55 -11 128 22 78
34 160 48 171 29 4 -6 2 -27 -4 -46 -6 -19 -10 -45 -8 -57 3 -19 6 -17 31 21
l28 42 20 -25 c45 -57 144 -55 190 2 l21 27 -39 5 c-21 3 -44 9 -52 14 -10 7
-12 2 -6 -23 5 -25 3 -31 -10 -31 -24 0 -67 25 -94 54 -22 23 -23 28 -10 40
19 18 214 136 224 136 20 0 -19 -337 -55 -484 -42 -169 -61 -219 -95 -253 -40
-40 -74 -42 -146 -11 -43 18 -50 24 -44 42 4 12 11 44 15 71 7 35 18 57 36 73
40 35 53 15 30 -47 -17 -49 -17 -50 3 -70 12 -12 21 -25 21 -31 0 -16 46 -23
69 -10 30 15 26 30 -8 30 -26 0 -30 4 -36 40 -9 52 1 86 21 69 8 -6 16 -10 17
-8 2 2 22 30 45 61 23 31 42 59 42 61 0 3 -18 7 -40 11 -23 4 -54 18 -72 35
-30 27 -33 34 -33 89 l1 59 -19 -24 c-18 -23 -19 -23 -49 -6 -17 10 -48 38
-69 62 l-39 44 0 -30 c0 -17 11 -47 25 -67 19 -29 23 -41 15 -56 -5 -10 -10
-27 -10 -36 0 -14 3 -15 12 -6 22 22 35 13 31 -20 l-4 -33 20 23 c11 12 21 28
24 35 3 11 106 -91 115 -114 6 -15 -75 -10 -87 5 -7 8 -9 25 -5 40 8 35 -7 33
-28 -4 -20 -35 -40 -37 -114 -15 -88 26 -156 94 -186 185 l-15 45 -13 -40
c-38 -117 -102 -191 -188 -216 -63 -19 -215 -15 -288 6 -126 36 -214 127 -214
221 0 37 3 42 27 47 32 6 67 -9 57 -24 -3 -6 -12 -8 -20 -5 -17 6 -19 -39 -4
-78 12 -34 30 -33 30 0 0 31 35 84 56 84 13 0 13 -3 0 -22 -25 -35 -19 -41 14
-18 38 27 38 19 -2 -36 -29 -41 -30 -46 -18 -71 8 -16 15 -29 15 -30 0 -1 46
-11 103 -23 110 -22 142 -18 142 20 0 22 -10 26 -25 11 -10 -10 -131 0 -192
16 l-32 8 31 49 c32 53 130 156 147 156 5 0 -3 -32 -20 -71 -37 -90 -38 -111
-5 -79 43 40 66 105 82 233 15 118 38 189 72 230 9 10 54 36 100 57 225 106
444 304 498 451 9 24 20 81 25 127 5 45 16 96 25 113 18 36 18 36 -19 41 l-28
3 -4 -85 c-8 -193 -126 -372 -343 -518 -76 -51 -255 -152 -270 -152 -32 0 -2
31 91 93 153 102 141 88 123 139 -10 31 -12 56 -6 81 7 34 5 39 -26 67 -45 39
-55 38 -43 -2 13 -48 -3 -54 -45 -18 -26 23 -38 43 -43 72 l-6 41 -17 -24
c-10 -12 -23 -41 -30 -63 -11 -36 -14 -38 -25 -23 -16 23 -23 21 -27 -5 -2
-13 -11 18 -21 69 -26 137 -38 156 -32 48 3 -49 8 -108 11 -130 11 -72 -15
-25 -40 76 -14 52 -25 83 -26 69 -4 -62 3 -120 23 -180 17 -51 21 -78 15 -120
-10 -84 4 -84 33 2 l17 52 109 27 c59 16 111 28 115 29 9 0 39 -91 33 -101 -3
-4 -55 -36 -116 -71 -69 -38 -114 -71 -120 -84 -4 -12 -12 -85 -16 -162 -10
-155 -23 -192 -69 -192 -24 0 -25 1 -18 48 4 26 12 71 19 100 8 34 9 55 3 58
-17 10 -134 -121 -162 -180 -36 -77 -82 -97 -136 -59 -13 9 -43 17 -67 18 -68
1 -70 12 -18 100 25 42 44 80 41 82 -13 13 -37 -10 -61 -57 -24 -48 -66 -82
-82 -66 -4 4 -1 17 7 29 94 147 173 293 168 309 -5 14 -109 -133 -158 -224
l-42 -78 -28 15 c-62 32 -60 8 5 -56 20 -21 33 -39 28 -42 -4 -3 -43 -12 -84
-21 -89 -18 -135 -9 -149 30 -13 34 -4 49 50 89 67 49 153 144 195 216 40 69
67 130 61 136 -6 6 -109 -133 -153 -207 -19 -33 -41 -60 -49 -60 -20 0 -37 38
-32 72 4 21 1 27 -9 24 -9 -4 -13 4 -13 24 0 62 -31 25 -64 -78 -10 -29 -35
-75 -56 -104 -43 -56 -331 -350 -337 -344 -13 12 41 76 168 201 78 77 152 157
165 177 13 20 40 92 59 159 42 143 53 167 101 214 42 42 53 43 85 9 52 -56
112 -69 157 -34 20 16 34 19 66 15 36 -6 54 0 141 45 70 36 110 50 132 48 18
-1 35 1 39 4 9 10 -15 105 -31 118 -11 9 -12 3 -8 -30 4 -25 2 -40 -5 -40 -17
0 -47 149 -69 353 l-8 68 -84 -73 c-46 -40 -89 -81 -95 -90 -23 -38 8 -28 80
26 41 32 77 56 78 54 1 -1 8 -68 15 -148 6 -80 14 -157 17 -171 7 -31 -18 -59
-78 -90 -57 -29 -58 -23 -1 29 l53 47 -16 65 c-23 88 -34 96 -35 24 0 -53 -2
-56 -12 -34 -11 23 -12 20 -15 -32 -2 -32 -7 -58 -12 -58 -6 0 -10 9 -10 20 0
44 -64 31 -76 -16 -8 -32 -1 -39 27 -24 19 11 21 10 16 -5 -4 -9 -7 -18 -7
-21 0 -8 -58 -33 -64 -27 -3 4 -6 20 -6 37 0 17 -4 37 -9 45 -7 11 -13 6 -24
-21 -31 -75 -95 -100 -137 -55 -21 21 -21 30 -18 182 4 216 15 233 169 261
111 20 132 29 173 74 73 81 70 206 -7 283 -44 44 -42 57 6 39 30 -12 34 -11
54 15 13 16 23 31 23 36 0 10 -18 9 -25 -3 -7 -12 -75 -14 -75 -2 0 4 5 13 11
19 16 16 1 35 -21 28 -13 -4 -20 0 -22 12 -3 14 -9 9 -23 -19 -10 -21 -22 -38
-27 -38 -4 0 -8 21 -9 48 -1 44 -2 45 -12 20 -13 -32 -22 -35 -32 -10 -6 13
-10 8 -20 -23 -12 -36 -13 -20 -14 148 -1 159 -3 187 -16 187 -12 0 -15 -13
-15 -55 0 -48 -3 -57 -22 -64 -32 -12 -64 -49 -84 -96 -43 -104 -244 -629
-241 -631 4 -5 171 242 191 283 10 21 16 59 16 106 0 69 3 78 35 123 19 27 48
71 64 99 24 39 31 46 37 31 8 -21 0 -148 -11 -166 -10 -16 -25 6 -25 38 0 39
-18 24 -39 -34 -36 -96 -43 -143 -36 -254 8 -125 1 -148 -56 -186 -50 -34 -66
-71 -47 -110 16 -34 43 -46 34 -15 -3 11 -8 29 -11 40 -4 13 4 24 27 39 18 12
34 19 36 17 2 -2 -6 -22 -18 -45 -18 -35 -20 -50 -13 -88 10 -61 7 -172 -7
-203 -8 -18 -9 3 -5 84 4 68 2 107 -4 107 -20 0 -31 -40 -32 -117 -1 -43 -3
-70 -6 -60 -2 9 -9 17 -14 17 -14 0 -11 -38 4 -43 9 -4 9 -7 0 -18 -7 -7 -14
-11 -16 -8 -2 2 -21 48 -42 102 -34 85 -55 119 -55 87 0 -13 -70 -90 -81 -90
-24 0 72 152 139 222 52 54 49 81 -4 49 -67 -41 -156 -186 -234 -382 -53 -131
-64 -186 -51 -236 17 -61 50 -85 128 -95 80 -9 96 -21 57 -41 -39 -21 -115
-102 -148 -157 -14 -25 -26 -39 -26 -32 0 23 30 84 65 132 19 26 35 51 35 55
0 18 -84 -5 -109 -29 -15 -14 -30 -26 -33 -26 -3 0 -1 20 5 45 12 51 -1 108
-32 147 l-20 23 -62 -132 c-58 -124 -88 -167 -73 -108 8 32 -15 34 -43 3 -28
-32 -34 -66 -18 -103 16 -41 25 -46 89 -54 47 -6 51 -8 48 -31 -5 -35 -53
-137 -59 -123 -2 6 3 28 11 48 22 51 20 55 -13 55 -35 0 -77 -33 -126 -100
-20 -28 -41 -50 -45 -50 -20 0 17 68 60 110 l47 46 -29 37 -30 37 -72 -49
c-87 -59 -131 -107 -147 -160 -16 -52 -6 -84 40 -134 34 -36 37 -45 26 -60
-15 -21 -25 -22 -25 -2 0 7 -20 31 -45 52 -27 23 -43 43 -40 53 18 62 17 70
-4 70 -12 0 -21 3 -21 7 0 3 53 61 118 127 293 301 387 423 505 661 61 123
204 469 323 783 118 311 140 514 73 685 -24 61 -24 63 6 92 33 34 68 32 280
-10 248 -50 403 -96 525 -157 86 -43 118 -66 180 -128 238 -240 300 -594 170
-977 -37 -108 -74 -171 -105 -179 -31 -8 -63 3 -75 26 -9 16 -5 22 21 35 37
20 43 16 30 -18 -14 -36 3 -43 27 -12 13 17 42 114 82 278 55 227 65 297 42
297 -4 0 -20 -62 -35 -137 -40 -196 -65 -246 -141 -285 -21 -11 -49 -31 -62
-45 -29 -31 -42 -25 -116 56 -106 114 -127 194 -89 336 11 39 33 124 51 190
17 66 36 124 41 129 5 6 23 15 41 20 39 13 52 40 15 31 -41 -11 -82 20 -139
102 -45 66 -62 82 -116 110 -54 28 -74 33 -132 33 -38 0 -81 -5 -97 -12 l-28
-11 40 -8 c22 -4 61 -8 88 -8 50 -1 56 -8 33 -44 -19 -29 -31 -97 -18 -97 6 0
27 27 48 60 20 33 40 60 44 60 4 0 35 -29 68 -64 57 -61 102 -147 102 -193 0
-14 -2 -15 -17 -1 -22 19 -107 68 -118 68 -4 0 11 -20 33 -44 22 -24 45 -54
52 -67 33 -61 30 -133 -8 -179 l-18 -22 -32 50 c-18 27 -39 52 -47 56 -20 7
-20 6 17 -66 50 -98 52 -239 3 -198 -57 48 15 -75 129 -219 81 -103 230 -249
261 -257 33 -8 48 5 92 83 96 173 135 320 135 518 -1 134 -12 209 -53 333 -11
34 -21 83 -21 108 0 70 49 159 127 233 36 33 65 63 65 66 0 14 -47 -9 -77 -38
-40 -37 -50 -31 -28 18 19 39 19 40 -12 49 -19 6 -23 3 -28 -21 -22 -109 -78
-247 -97 -241 -23 8 -58 70 -58 102 0 38 31 107 66 150 156 186 342 367 410
398 13 6 24 17 24 23 0 18 -68 154 -136 271 -208 360 -499 714 -798 969 -55
47 -59 48 -72 30 -12 -17 -11 -22 16 -48 50 -49 52 -131 5 -193 -38 -50 73 20
-1498 -940 -147 -90 -271 -164 -277 -164 -20 0 -60 69 -66 113 -9 62 16 126
70 186 72 78 507 347 1106 684 176 99 551 297 562 297 4 0 8 -11 8 -25 0 -21
-5 -25 -29 -25 -28 0 -60 -24 -47 -37 3 -3 18 -1 32 6 33 14 39 9 24 -19 -6
-12 -9 -24 -7 -27 3 -3 12 8 21 25 8 16 12 32 9 35 -3 4 -1 13 5 20 7 7 21 45
33 82 l21 69 -28 23 c-16 13 -32 23 -35 23 -3 0 -13 -15 -22 -32 l-16 -33 6
49 c5 36 3 47 -5 42 -7 -4 -12 -13 -12 -20 0 -6 -18 -48 -40 -91 l-40 -80 6
48 c3 26 3 47 1 47 -3 0 -19 -25 -37 -56 l-32 -57 -19 32 c-51 84 -154 60
-225 -51 -34 -54 -30 -69 7 -25 17 21 48 46 69 57 49 25 118 41 126 29 9 -15
-90 -104 -143 -129 -26 -13 -74 -25 -106 -28 -51 -4 -61 -2 -83 19 -20 19 -24
30 -20 53 5 24 4 27 -9 16 -8 -7 -15 -18 -15 -24 0 -9 -114 -173 -135 -194 -6
-7 -2 76 11 191 2 26 1 47 -4 47 -12 0 -191 -182 -248 -253 -43 -53 -49 -57
-56 -38 -4 12 -12 21 -17 21 -12 0 -26 -64 -17 -78 3 -5 -21 -47 -53 -93 -98
-139 -93 -136 -87 -49 5 78 27 152 58 192 l18 23 0 -27 c0 -41 19 -83 31 -71
20 20 23 129 5 178 -10 25 -21 45 -26 45 -4 0 -15 -19 -23 -42 -8 -24 -38
-110 -67 -193 -53 -153 -79 -200 -101 -178 -9 9 -9 16 1 28 8 9 8 15 2 15 -6
0 -14 -5 -18 -11 -8 -13 -103 -59 -122 -59 -10 0 -12 8 -7 30 4 18 3 30 -4 30
-14 0 -29 -32 -24 -48 3 -8 -3 -34 -12 -58 -9 -25 -15 -47 -13 -50 3 -2 21 3
41 11 20 8 49 15 64 15 26 0 25 -2 -17 -26 -25 -14 -59 -39 -76 -55 -27 -26
-32 -28 -44 -14 -7 8 -19 15 -26 15 -18 0 -18 14 1 30 8 7 15 24 15 39 0 14
14 55 30 89 31 66 38 102 19 102 -13 0 -76 -137 -90 -198 -6 -26 -20 -55 -32
-65 -20 -18 -21 -17 -56 35 -20 28 -70 97 -111 152 l-75 101 -3 -60 c-4 -76
-15 -87 -41 -44 -23 38 -26 70 -10 101 9 16 8 19 -3 16 -23 -8 -70 -96 -75
-142 -3 -25 -11 -50 -17 -55 -16 -13 -492 -18 -489 -5 1 6 22 45 47 87 25 43
46 85 46 95 0 26 93 143 173 218 84 79 74 75 -41 -14 -196 -151 -314 -309
-346 -461 -31 -144 -61 -188 -134 -198 -34 -5 -42 -2 -51 16 -7 11 -19 21 -27
21 -12 0 -9 -8 11 -32 29 -34 29 -76 0 -108 -21 -23 -19 -28 14 -35 55 -12
101 -79 101 -148 0 -59 -19 -101 -80 -181 l-51 -67 25 -29 c47 -56 70 -135 69
-240 0 -60 -5 -106 -14 -125 -13 -28 -14 -20 -19 105 -6 171 -21 144 -29 -55
l-6 -140 -17 37 c-10 20 -18 52 -18 73 0 52 -14 36 -45 -50 -16 -42 -32 -78
-36 -81 -5 -2 -25 20 -45 51 -51 77 -73 70 -39 -12 18 -43 14 -50 -21 -34 -33
15 -41 9 -49 -37 -13 -78 -25 -69 -25 20 0 79 10 117 23 86 8 -19 27 11 27 41
0 23 -1 24 -20 6 -24 -22 -26 -12 -9 65 6 28 8 54 5 57 -9 10 -92 -173 -128
-281 -18 -54 -34 -93 -36 -86 -6 17 17 119 35 153 20 40 8 47 -14 8 -22 -38
-36 -40 -29 -3 3 15 10 56 17 92 16 97 72 262 77 228 4 -30 11 -35 30 -16 15
15 16 84 2 93 -7 4 3 32 26 73 43 77 21 66 -36 -18 -53 -78 -87 -149 -119
-247 l-28 -86 -16 32 -16 33 120 216 c67 120 123 220 126 225 2 4 0 7 -5 7
-14 0 -150 -207 -208 -314 l-48 -90 -13 30 c-17 39 -16 87 2 132 l15 37 -20
-24 c-26 -31 -53 -124 -48 -167 5 -39 -4 -43 -26 -12 -21 30 -21 25 14 -114
17 -66 29 -122 27 -124 -2 -3 -30 52 -62 122 -41 87 -56 129 -50 138 6 8 29
39 53 70 24 31 97 145 164 254 143 234 184 293 272 391 63 70 76 91 58 91 -14
0 -145 -140 -193 -205 -24 -33 -116 -181 -203 -328 -88 -147 -163 -267 -167
-267 -3 0 -13 15 -20 33 -7 17 -68 149 -135 292 -67 143 -120 262 -118 264 2
3 10 -1 16 -7 7 -7 15 -12 19 -12 13 0 19 33 8 46 -9 11 -15 11 -35 -3 -13 -8
-24 -11 -24 -5 0 5 18 21 40 36 37 24 78 82 67 93 -3 3 -34 -14 -68 -38 -59
-40 -63 -41 -76 -23 -35 48 -44 187 -17 267 28 83 36 67 29 -65 -5 -124 -4
-127 27 -53 12 29 13 27 16 -37 2 -38 7 -68 12 -68 6 0 10 1 10 3 0 1 10 68
21 147 16 107 22 202 23 360 2 166 6 229 19 275 21 75 25 127 11 132 -6 2 -16
-25 -23 -62 -12 -61 -31 -80 -31 -32 0 41 -18 2 -40 -87 -23 -93 -31 -266 -15
-335 5 -22 4 -31 -3 -27 -19 12 -45 150 -51 276 l-6 125 -43 -240 c-23 -132
-42 -248 -42 -258 0 -38 -26 -8 -52 59 -56 143 -75 304 -56 469 l7 60 -19 -55
c-10 -30 -26 -81 -35 -112 -9 -32 -19 -58 -23 -58 -4 0 -72 138 -151 305 -136
288 -162 331 -177 291z m3527 -538 c-5 -13 -19 -45 -30 -71 -12 -27 -21 -51
-21 -53 0 -12 37 0 86 27 30 17 57 29 61 26 8 -9 -55 -85 -77 -92 -11 -4 -29
-4 -40 0 -21 7 -40 -2 -117 -52 -29 -19 -53 -41 -53 -49 0 -11 14 -6 46 16 25
18 47 30 50 27 4 -4 -41 -37 -109 -77 -45 -26 -54 -22 -34 17 19 35 62 76 104
97 32 16 64 64 76 116 4 14 16 40 27 58 23 37 44 44 31 10z m101 -602 c35 -14
149 -57 253 -96 347 -131 377 -143 406 -167 38 -32 47 -82 24 -134 -33 -72
-111 -110 -255 -124 -138 -13 -163 -39 -140 -143 21 -92 23 -135 8 -156 -14
-17 -197 -78 -208 -68 -3 2 5 11 18 19 33 23 27 31 -20 26 -26 -3 -86 5 -155
21 -107 25 -213 34 -213 19 0 -5 57 -21 128 -37 70 -16 134 -33 142 -38 17
-10 -81 -4 -117 7 -34 11 -29 -13 7 -33 16 -9 30 -20 30 -23 0 -8 -96 -55
-144 -69 -24 -8 -73 -10 -130 -8 -74 4 -108 12 -182 41 -101 40 -162 53 -183
38 -12 -8 -12 -13 2 -34 9 -14 33 -42 53 -61 21 -20 33 -36 28 -36 -19 0 -70
41 -96 77 -29 38 -35 34 -18 -13 15 -38 5 -42 -28 -12 -15 14 -39 33 -54 43
l-28 17 0 -46 c0 -25 -4 -46 -8 -46 -4 0 -14 21 -22 48 l-15 47 -3 -57 c-4
-67 -22 -79 -22 -15 0 30 -6 49 -18 61 -18 15 -21 15 -47 -6 l-28 -22 6 33 c4
21 3 39 -4 48 -7 7 -10 15 -8 16 2 2 23 15 46 30 73 47 129 152 116 219 -3 16
-21 43 -39 61 -54 50 -63 104 -33 186 l9 23 21 -26 c32 -40 86 -52 146 -32 46
15 127 72 146 104 16 25 109 92 128 92 11 0 66 -22 122 -50 182 -88 394 -135
587 -128 81 3 112 8 137 22 28 17 48 48 37 59 -2 2 -34 -7 -71 -19 -67 -23
-188 -32 -240 -18 -29 8 -20 24 13 24 14 0 46 6 72 12 l47 12 -90 11 c-49 6
-83 14 -75 18 8 3 29 12 45 19 28 11 24 12 -65 23 l-95 11 43 12 c23 7 42 16
42 21 0 4 -18 16 -40 26 -22 10 -47 26 -56 36 -10 11 -21 19 -25 19 -5 0 -16
-26 -26 -57 l-18 -58 -3 42 c-4 50 7 74 42 92 23 13 29 12 63 -10 49 -32 101
-54 188 -80 84 -25 149 -61 171 -94 13 -21 19 -22 40 -13 13 6 24 14 24 17 0
8 -117 80 -178 110 -73 37 -295 121 -335 128 -39 6 -44 19 -14 37 13 9 28 5
66 -17 80 -44 113 -28 41 21 -43 29 -26 28 52 -2z m1463 -382 c197 -37 205
-57 21 -52 -111 2 -137 6 -153 21 -35 31 -44 -2 -17 -59 18 -38 16 -48 -9 -38
-9 3 -22 25 -29 48 -14 51 -43 85 -59 69 -8 -8 -8 -16 0 -31 15 -29 14 -52 -4
-52 -8 0 -21 16 -29 35 -17 39 -36 46 -36 13 0 -21 -1 -21 -30 7 -36 34 -47
28 -26 -14 26 -50 19 -53 -39 -15 -63 42 -80 39 -41 -6 49 -58 31 -66 -33 -15
-24 19 -49 35 -56 35 -27 0 -23 -15 10 -37 19 -13 35 -30 35 -39 0 -10 -16 -5
-56 21 -66 42 -81 40 -30 -5 39 -35 50 -62 14 -36 -57 41 -108 67 -118 61 -7
-4 14 -26 49 -52 34 -25 61 -47 61 -49 0 -16 -45 2 -90 36 -51 38 -90 51 -90
31 0 -6 21 -25 46 -43 25 -18 41 -34 36 -36 -5 -1 -41 9 -79 23 -83 30 -84 30
-76 8 5 -13 2 -15 -18 -10 -13 4 -32 7 -41 7 -36 0 -17 20 50 53 260 130 556
173 837 121z m-3316 -385 c11 -12 22 -40 26 -63 3 -22 13 -65 21 -95 15 -51
13 -101 -4 -101 -9 0 -42 112 -42 147 -1 27 -1 27 -15 9 -19 -25 -19 -62 -1
-113 13 -37 7 -73 -12 -73 -8 0 -11 28 -18 188 -4 105 -3 122 10 122 8 0 24
-10 35 -21z m2360 -551 c-6 -13 -19 -31 -28 -42 -15 -17 -12 -17 26 3 46 23
93 27 124 11 63 -34 64 -183 2 -252 -20 -22 -66 -23 -87 -3 -8 8 -17 15 -20
15 -11 0 -6 -35 9 -64 8 -15 15 -32 15 -37 0 -12 -31 -11 -50 1 -13 9 -13 11
-1 19 12 8 10 19 -10 68 -22 53 -24 55 -27 28 -7 -79 -14 -82 -33 -15 -22 78
-24 149 -5 176 10 13 11 23 5 31 -12 13 22 53 45 53 7 0 19 7 26 15 18 22 22
18 9 -7z m-299 -810 l24 -82 -50 -95 c-40 -75 -56 -96 -77 -102 -15 -4 -27 -4
-27 -1 1 16 18 33 31 30 17 -4 49 58 49 95 0 45 -17 31 -66 -53 -26 -44 -50
-80 -55 -80 -4 0 5 30 22 67 22 49 27 68 18 74 -9 5 -5 18 16 44 22 30 25 39
14 46 -33 20 -76 -11 -119 -87 -29 -49 -60 -85 -60 -69 0 25 156 285 171 285
6 0 6 -8 -1 -19 -12 -24 -13 -51 -1 -51 4 0 20 18 35 40 14 22 32 40 39 40 8
0 23 -34 37 -82z m1446 -41 c-8 -50 -51 -147 -97 -215 -75 -109 -373 -392
-414 -392 -34 0 -32 10 16 55 54 52 169 186 169 197 0 25 -37 -3 -135 -102
-59 -60 -112 -110 -118 -110 -5 0 -6 16 -3 38 4 20 10 59 14 86 4 28 13 51 21
54 11 4 12 -3 7 -32 -4 -20 -3 -36 1 -36 5 0 29 20 53 45 24 24 82 68 128 97
174 106 290 221 336 332 20 49 30 41 22 -17z m-1146 -608 c0 -7 -9 -27 -21
-45 -11 -19 -19 -44 -17 -56 4 -21 5 -21 24 10 31 55 55 83 65 76 5 -3 0 -17
-11 -31 -11 -14 -20 -37 -20 -50 0 -30 17 -21 31 15 15 39 36 2 30 -54 -2 -19
-101 -56 -151 -56 -98 1 -220 70 -220 125 0 21 6 25 38 30 20 4 53 9 72 13
l35 7 -22 -25 c-13 -13 -23 -30 -23 -36 0 -19 -18 -14 -30 8 -12 22 -40 27
-40 7 0 -24 44 -56 113 -82 73 -27 97 -31 97 -15 0 6 -9 10 -19 10 -33 0 -31
14 11 88 39 67 58 87 58 61z m-301 -148 c14 -9 11 -22 -11 -53 -10 -14 -10
-20 0 -30 9 -9 16 -7 32 10 24 25 50 29 50 7 0 -18 12 -19 27 -4 7 7 25 6 61
-5 37 -11 61 -12 84 -5 57 16 62 11 27 -31 -19 -21 -43 -51 -54 -65 -29 -36
-68 -44 -145 -29 -137 28 -234 98 -247 178 l-6 36 84 0 c46 0 90 -4 98 -9z
m1141 -61 c0 -34 13 -51 52 -69 31 -15 33 -18 33 -76 0 -76 23 -122 87 -179
56 -51 127 -78 205 -80 29 0 53 -2 53 -4 0 -17 -76 -162 -85 -162 -16 0 -25
32 -25 88 0 42 -13 56 -24 26 -10 -26 -7 -91 6 -119 17 -37 0 -44 -29 -11 -24
28 -27 59 -11 126 7 32 -18 23 -36 -14 -15 -31 -17 -44 -8 -72 14 -46 -6 -45
-35 1 -27 40 -88 75 -135 75 -39 0 -104 29 -135 59 -45 43 -93 165 -93 238 0
27 9 38 58 75 52 40 81 79 97 133 5 16 8 17 15 5 6 -8 10 -26 10 -40z m-717
-2 c20 -47 62 -93 98 -108 27 -12 30 -17 25 -42 -7 -35 -4 -35 40 -1 30 22 40
25 62 17 25 -9 27 -14 24 -56 -4 -57 12 -70 28 -23 17 51 34 45 28 -10 -9 -79
-51 -116 -114 -101 -32 8 -202 178 -210 210 -3 13 0 34 6 46 21 39 -4 47 -44
14 -19 -16 -35 -31 -35 -34 -2 -11 195 -217 228 -238 33 -21 45 -23 126 -19
101 5 102 6 178 126 43 68 73 82 61 29 -21 -99 -29 -113 -59 -113 -36 -1 -47
-30 -16 -40 29 -9 57 10 70 46 10 29 31 33 31 5 0 -18 -47 -64 -84 -83 -25
-13 -37 -13 -82 -3 -42 10 -64 10 -116 0 -61 -12 -68 -12 -110 9 -43 21 -117
91 -205 195 -48 58 -61 57 -101 -10 -42 -72 -81 -124 -92 -124 -6 0 -25 23
-42 50 -17 28 -35 50 -39 50 -31 0 30 -102 89 -148 22 -18 62 -42 88 -54 59
-25 167 -36 189 -18 26 22 16 30 -30 23 -28 -3 -50 -1 -59 6 -8 7 -25 9 -40 5
-29 -7 -35 6 -11 26 8 7 15 20 15 29 0 12 -5 11 -18 -7 -21 -28 -68 -27 -86 0
-12 19 24 106 56 135 22 19 24 6 3 -23 -8 -12 -11 -24 -8 -28 11 -11 58 -7 71
6 10 10 29 -4 90 -65 85 -85 87 -95 21 -130 -81 -43 -224 -1 -325 95 -61 58
-84 94 -84 132 0 34 15 41 87 38 34 -2 71 2 82 8 12 6 40 36 63 68 51 69 117
142 129 142 5 0 15 -15 22 -32z m920 -113 c41 -8 42 -10 22 -45 -21 -36 -19
-53 5 -45 19 6 19 5 4 -47 -9 -29 -18 -55 -20 -57 -8 -8 -46 35 -66 72 -10 21
-22 61 -25 89 -6 50 -6 51 18 45 13 -3 41 -9 62 -12z m-1565 -31 c22 -15 25
-15 44 3 21 18 21 18 9 -4 -16 -32 2 -37 29 -8 22 23 50 34 50 19 0 -4 -12
-17 -26 -30 -26 -25 -25 -55 2 -33 15 12 17 7 14 -30 -3 -33 21 -22 33 15 13
39 36 64 53 57 10 -4 6 -14 -16 -41 -15 -21 -30 -46 -32 -56 -5 -32 20 -29 37
3 8 17 20 31 25 31 15 0 13 -7 -16 -56 -18 -31 -23 -49 -16 -56 6 -6 15 -2 26
14 l17 23 30 -35 c16 -19 28 -39 26 -44 -4 -13 -65 -34 -100 -35 -41 -1 -90
22 -158 76 -70 55 -109 114 -109 166 0 34 2 37 28 37 15 0 38 -7 50 -16z
m-238 -134 c20 -14 37 -19 54 -14 19 4 28 2 32 -10 6 -14 9 -14 34 1 27 15 30
15 54 -1 35 -22 36 -50 1 -34 -19 8 -28 8 -40 -2 -22 -19 -11 -27 47 -33 67
-7 108 -25 108 -49 0 -26 -49 -24 -136 6 -96 32 -168 71 -193 102 -41 52 -16
73 39 34z m1463 -134 c15 -19 27 -40 27 -46 0 -6 -13 -31 -30 -55 -42 -61 -37
-66 15 -15 46 45 77 50 35 5 -19 -20 -21 -27 -10 -40 18 -22 25 -19 50 18 l21
32 -4 -30 c-3 -16 -8 -40 -12 -52 -12 -38 14 -26 32 15 39 85 78 95 143 36 54
-49 59 -75 25 -116 -38 -45 -13 -49 33 -5 34 33 40 35 85 30 26 -3 47 -7 47
-8 0 -10 -56 -103 -68 -112 -9 -7 -33 -13 -54 -13 -46 0 -88 35 -88 73 0 31
-20 87 -30 87 -5 0 -10 -10 -12 -22 -3 -21 -8 -23 -53 -20 -117 7 -230 60
-280 131 -31 45 -31 84 0 89 12 2 34 14 50 27 39 32 45 31 78 -9z m-1693 16
c0 -5 -11 -19 -25 -32 -25 -24 -35 -83 -16 -94 5 -4 28 15 50 41 45 51 70 53
27 2 -21 -24 -24 -34 -15 -45 15 -18 29 -18 29 0 0 18 46 73 54 66 3 -3 -2
-30 -10 -59 -9 -29 -13 -55 -10 -58 10 -10 37 20 62 69 27 54 44 62 44 21 0
-16 9 -43 20 -61 11 -18 20 -35 20 -37 0 -10 -224 -4 -261 6 -41 13 -83 51
-93 86 -8 27 31 73 62 73 11 0 25 7 32 15 14 16 30 20 30 7z m839 -38 c13 -12
12 -16 -2 -32 -16 -18 -23 -42 -12 -42 3 0 17 7 30 16 34 22 31 10 -11 -47
l-36 -49 -65 60 c-36 33 -70 60 -74 60 -39 0 66 -111 139 -147 42 -21 70 -27
121 -27 87 -1 90 18 4 24 -79 6 -82 12 -37 87 21 36 29 43 32 29 2 -10 -1 -23
-7 -29 -6 -6 -11 -17 -11 -24 0 -18 27 -16 34 2 3 8 10 15 16 15 5 0 10 -7 10
-15 0 -23 16 -18 28 10 7 14 23 31 37 37 23 10 29 9 52 -14 34 -34 43 -106 17
-130 -28 -24 -90 -38 -170 -38 -103 0 -183 42 -292 153 -45 47 -82 89 -82 94
0 7 14 7 39 0 32 -9 51 -7 107 10 71 22 108 21 133 -3z m653 8 c6 -6 0 -24
-16 -51 -27 -43 -22 -55 9 -21 18 20 35 18 35 -4 0 -7 -13 -30 -30 -51 -16
-20 -27 -41 -24 -46 7 -13 57 1 70 19 10 13 16 11 48 -13 42 -32 42 -44 1 -64
-90 -44 -357 24 -428 108 -33 40 -34 49 -3 61 13 4 33 21 45 36 17 22 30 27
76 30 78 4 87 -1 79 -43 -10 -51 16 -39 34 16 14 43 15 43 54 38 22 -3 45 -10
50 -15z m-1139 -21 c38 -17 47 -25 47 -46 0 -30 4 -31 30 -5 29 29 45 15 20
-17 -15 -19 -17 -30 -9 -44 15 -30 46 -23 65 14 37 71 67 52 35 -23 -21 -48
-21 -77 0 -65 5 4 9 -1 9 -10 0 -13 6 -16 25 -11 17 4 25 2 25 -6 1 -8 7 -5
15 6 19 25 19 40 0 32 -9 -3 -15 0 -15 9 0 8 -7 15 -16 15 -23 0 -13 34 11 38
13 2 34 -11 57 -36 19 -21 52 -49 72 -62 64 -44 58 -76 -20 -106 -65 -25 -157
-15 -239 25 -106 53 -235 198 -235 266 0 60 29 66 123 26z m-496 -169 c-26
-36 -35 -72 -20 -72 4 0 20 12 36 28 23 20 28 22 24 9 -4 -11 -10 -31 -14 -45
-5 -24 -1 -22 35 18 50 56 65 47 22 -15 -18 -26 -30 -49 -27 -52 7 -7 65 37
71 54 7 18 26 16 26 -3 0 -10 9 -5 26 15 32 38 43 39 41 5 -3 -37 16 -40 30
-5 15 41 57 67 87 53 17 -8 25 -22 30 -54 8 -53 47 -138 85 -187 l29 -36 -24
-18 c-31 -23 -31 -39 1 -31 27 7 33 -4 13 -24 -6 -6 -9 -14 -6 -18 4 -3 16 4
28 16 28 28 36 20 16 -19 -9 -16 -16 -39 -16 -51 0 -18 6 -15 38 20 41 42 48
45 71 31 10 -6 3 -19 -30 -53 -60 -62 -71 -64 -140 -27 -69 37 -127 97 -136
139 -3 17 -12 30 -21 30 -11 0 -13 -8 -9 -35 7 -45 39 -89 89 -125 46 -34 167
-85 223 -96 39 -7 40 -6 23 13 -25 27 -22 60 7 88 44 45 119 30 155 -32 13
-21 38 -52 56 -69 38 -35 37 -55 -6 -127 -12 -21 -19 -41 -15 -45 3 -4 11 1
16 11 6 9 14 17 19 17 16 0 11 -26 -8 -44 -16 -13 -30 -15 -87 -9 -62 7 -70
10 -76 33 -7 25 -7 25 -19 -7 -12 -34 -30 -44 -30 -18 0 8 -4 15 -10 15 -5 0
-10 -6 -10 -14 0 -8 -3 -21 -6 -29 -5 -13 11 -14 117 -10 100 5 121 4 117 -8
-10 -29 -108 -54 -218 -54 -98 0 -110 2 -173 32 -115 55 -207 161 -247 286
-10 31 -16 37 -40 37 -15 0 -43 -7 -63 -15 -41 -17 -52 -10 -32 19 19 26 19
36 1 36 -7 0 -21 -11 -30 -25 -31 -47 -86 -16 -72 41 7 27 17 29 48 13 11 -6
59 -11 106 -10 46 0 93 -4 102 -9 11 -6 20 -27 25 -57 10 -71 45 -131 116
-200 88 -86 127 -113 164 -113 38 0 55 16 54 50 l0 25 -16 -22 c-19 -29 -59
-30 -73 -3 -6 11 -15 18 -20 15 -20 -12 -173 154 -193 208 -19 52 41 29 63
-23 13 -32 20 -36 36 -20 6 6 21 2 41 -11 28 -18 31 -24 22 -40 -17 -32 -5
-44 19 -19 29 31 37 21 15 -18 -24 -42 -9 -52 27 -17 35 33 47 28 32 -14 -15
-44 2 -47 28 -6 23 38 44 46 163 63 67 10 107 32 107 58 0 10 -6 11 -25 4 -13
-5 -54 -14 -89 -21 -188 -32 -402 75 -495 250 -17 32 -31 62 -31 65 0 3 30 6
66 6 66 0 151 16 169 31 5 5 -20 9 -58 9 -78 0 -195 22 -276 52 -66 25 -131
84 -131 120 0 35 58 124 72 110 8 -8 4 -22 -15 -50z m1423 -49 c61 -25 110
-49 110 -52 0 -3 -17 -25 -38 -49 l-37 -44 -45 24 c-43 22 -45 25 -50 77 -7
73 -30 82 -30 12 0 -53 -12 -65 -30 -32 -17 33 -12 111 7 111 2 0 53 -21 113
-47z m-948 -28 c58 -54 171 -117 235 -130 32 -6 32 -7 26 -52 -5 -37 -3 -45 8
-41 8 3 18 18 23 34 12 42 21 57 34 62 7 2 12 -6 12 -17 0 -29 14 -26 28 4 14
29 36 34 27 6 -7 -23 4 -71 16 -71 13 0 49 61 49 82 0 9 -8 18 -17 21 -17 4
-17 4 0 12 15 6 32 -6 80 -57 34 -35 84 -79 110 -97 42 -29 48 -37 42 -58 -8
-33 -95 -183 -106 -183 -14 0 -12 5 41 99 28 49 50 91 50 95 0 10 -44 7 -172
-15 -129 -21 -175 -20 -261 7 -113 37 -216 127 -263 229 -26 57 -42 125 -29
125 4 0 34 -25 67 -55z m1348 32 c0 -7 -5 -18 -12 -25 -9 -9 -7 -13 5 -18 9
-3 17 -13 17 -22 0 -8 11 -35 25 -59 23 -38 24 -43 8 -43 -9 0 -43 27 -74 61
-36 39 -59 57 -64 50 -4 -7 -4 -20 0 -29 4 -9 9 -47 11 -84 3 -71 -6 -88 -53
-102 -48 -15 -265 63 -302 108 -22 26 3 19 68 -20 58 -34 62 -35 85 -21 23 16
55 61 86 122 12 24 23 31 55 36 41 5 99 31 110 49 9 14 35 12 35 -3z m-555
-83 c21 -39 125 -140 162 -157 12 -5 23 -13 23 -16 0 -13 -181 -53 -215 -48
-44 7 -102 47 -198 137 -104 97 -103 104 21 96 71 -4 106 -2 132 8 51 20 54
19 75 -20z m-1210 -87 c56 -21 59 -25 75 -74 9 -29 23 -59 30 -68 18 -22 -7
-29 -88 -23 -81 7 -117 22 -131 57 -12 34 -24 168 -15 182 4 7 18 -1 38 -20
18 -17 58 -41 91 -54z m1462 -125 c-24 -26 -39 -74 -28 -85 6 -6 15 2 25 22
17 32 62 68 73 58 3 -3 -9 -20 -26 -38 -17 -17 -39 -45 -47 -63 -26 -50 -45
-66 -78 -66 -39 0 -71 22 -91 61 -16 31 -45 40 -45 14 0 -25 31 -65 64 -82 17
-9 87 -29 156 -43 90 -19 125 -30 125 -41 0 -21 -75 -23 -142 -4 -125 37 -232
108 -255 171 -7 19 -17 33 -23 31 -14 -4 -69 -116 -61 -124 4 -4 18 6 32 22
l25 30 -5 -27 c-3 -16 -9 -39 -12 -53 -9 -38 24 -33 37 5 6 17 12 30 14 30 2
0 16 -13 33 -28 16 -16 49 -34 71 -42 48 -15 49 -34 3 -38 -20 -2 -32 -9 -32
-18 0 -20 -42 -34 -103 -34 -111 1 -213 42 -345 140 -75 56 -95 81 -74 94 4 2
48 10 96 17 88 12 89 12 106 -11 l18 -23 12 24 c8 14 15 19 17 12 7 -20 -39
-93 -57 -93 -10 0 -34 13 -55 30 -82 65 -109 50 -36 -21 93 -89 263 -150 372
-133 53 9 34 19 -51 28 -97 10 -140 24 -140 44 0 9 22 55 48 102 l47 85 50 -3
c60 -4 186 22 235 47 48 25 68 27 47 3z m193 -23 c0 -33 -47 -182 -58 -187
-15 -5 -110 14 -131 27 -11 7 -7 17 21 50 19 22 41 59 48 81 l13 40 54 0 c32
0 53 -4 53 -11z m-1570 -175 c0 -3 -22 -43 -50 -89 -27 -46 -50 -88 -50 -94 0
-29 29 -4 71 60 l47 71 41 -58 c22 -33 52 -73 66 -91 l26 -31 -58 -23 c-32
-12 -88 -24 -126 -27 -58 -4 -75 -1 -120 22 -28 14 -65 37 -82 50 l-30 25 25
0 c14 1 48 -13 75 -29 29 -17 64 -30 84 -30 56 0 158 21 178 36 19 16 -1 16
-157 -1 -50 -6 -60 -4 -102 24 -47 30 -48 32 -48 80 0 27 4 61 10 75 9 24 14
26 70 26 33 0 60 -4 60 -8 0 -4 -20 -28 -45 -52 -41 -41 -59 -80 -35 -80 5 0
38 34 72 75 57 67 78 86 78 69z m784 -85 c9 -14 13 -33 9 -50 -8 -40 40 -131
94 -179 25 -22 62 -42 88 -49 58 -15 174 -14 204 2 30 15 43 44 15 32 -31 -12
-108 -17 -123 -6 -35 23 91 166 185 211 34 16 58 20 83 16 20 -4 62 -9 94 -12
38 -4 57 -11 57 -20 0 -22 -48 -124 -58 -124 -15 0 -73 70 -88 107 -14 32 -24
40 -37 27 -9 -9 30 -84 62 -118 14 -15 37 -32 51 -38 19 -7 21 -11 10 -18 -27
-17 -86 30 -154 123 -15 20 -32 35 -37 32 -17 -11 -9 -42 21 -84 23 -32 28
-46 21 -59 -18 -34 -98 -99 -135 -112 -54 -18 -152 -9 -209 19 -63 30 -146 99
-180 147 -23 35 -26 46 -21 94 9 88 19 100 48 59z m114 -59 c22 -11 46 -20 53
-20 7 0 8 -7 4 -17 -12 -27 -18 -73 -11 -73 4 0 22 17 41 37 47 52 54 35 11
-27 -35 -51 -45 -80 -27 -80 12 0 62 59 83 99 9 17 24 31 33 31 14 0 14 -4 -3
-27 -11 -16 -22 -37 -26 -49 -3 -11 -19 -33 -36 -49 -26 -25 -32 -27 -57 -16
-26 11 -93 93 -122 149 -12 22 -7 62 8 62 4 0 26 -9 49 -20z m-1078 -148 c48
-24 67 -27 150 -27 79 0 103 4 139 23 53 26 61 27 61 7 0 -9 15 -23 34 -32
l35 -16 -30 -44 c-17 -23 -26 -43 -20 -43 5 0 34 9 64 21 48 18 58 19 74 8 55
-40 292 -253 288 -259 -9 -15 -166 -32 -227 -26 -86 10 -202 49 -278 93 -72
43 -172 138 -210 201 -14 23 -28 42 -32 42 -4 0 -4 -24 -1 -52 13 -109 5 -116
-83 -73 -60 29 -69 45 -26 45 16 0 35 6 44 13 15 12 33 77 22 77 -4 0 -22 -13
-41 -30 -44 -39 -80 -40 -94 -2 -20 50 -22 97 -5 130 l16 31 32 -30 c18 -16
58 -42 88 -57z m920 12 c0 -3 -22 -40 -50 -81 -47 -70 -61 -115 -41 -127 5 -3
23 23 40 59 16 36 35 65 40 65 7 0 7 -8 1 -26 -12 -32 -12 -34 0 -34 5 0 21
18 35 40 14 22 32 40 40 40 21 0 19 -10 -12 -42 -22 -23 -24 -30 -13 -43 11
-13 16 -12 41 9 33 28 55 25 109 -11 20 -13 50 -23 70 -23 35 0 80 -23 80 -40
0 -18 -63 -81 -104 -105 -55 -32 -138 -46 -201 -34 -81 15 -226 92 -295 155
-63 59 -98 111 -83 124 4 4 53 11 108 15 82 6 98 4 88 -6 -19 -20 -16 -39 7
-39 13 0 20 7 20 18 0 22 25 47 57 56 11 4 27 13 33 21 13 15 30 20 30 9z
m645 -61 c19 -9 35 -22 35 -30 0 -19 -48 -123 -57 -123 -13 0 -62 35 -78 56
-31 42 -6 114 40 114 13 0 40 -8 60 -17z m-1664 -163 c24 -11 65 -20 92 -20
26 0 47 -3 47 -8 0 -4 -11 -24 -25 -45 -40 -58 -100 -81 -146 -57 -34 19 -21
-7 24 -45 76 -66 202 -114 299 -115 57 0 54 17 -5 23 -70 9 -157 35 -157 48 0
6 11 25 26 41 28 35 78 128 71 135 -3 2 -31 -28 -63 -66 -53 -65 -87 -91 -101
-77 -7 7 117 151 144 166 18 11 25 11 38 0 25 -21 17 -53 -25 -110 -39 -52
-50 -80 -31 -80 4 0 33 29 62 65 30 36 59 65 64 65 34 0 106 -110 121 -187 6
-29 4 -31 -39 -42 -103 -25 -243 -9 -342 41 -115 59 -148 115 -125 216 12 55
18 72 24 72 2 0 23 -9 47 -20z m488 -187 c26 -51 71 -92 161 -148 85 -52 190
-88 246 -83 34 3 39 7 52 46 14 42 33 57 31 25 0 -10 -8 -43 -17 -73 -17 -52
-19 -55 -54 -58 -138 -12 -401 143 -461 271 -31 64 9 83 42 20z m437 -30 c1
-16 7 -40 14 -52 10 -19 9 -31 -6 -65 -23 -53 -23 -53 -34 -36 -7 12 -12 11
-31 -5 l-22 -20 5 28 c6 30 -3 35 -22 12 -17 -21 -30 -19 -30 5 0 22 -20 26
-38 8 -20 -20 -83 7 -154 69 -37 31 -65 59 -63 61 7 7 125 -20 125 -28 0 -4
-7 -13 -15 -20 -8 -7 -12 -17 -9 -22 3 -5 16 -1 28 11 27 25 105 61 131 60 15
0 11 -4 -12 -15 -38 -16 -40 -23 -14 -55 l20 -24 36 35 c20 19 44 47 53 63 20
34 36 30 38 -10z m-984 -54 c-24 -39 -5 -53 30 -22 10 9 18 11 18 5 0 -6 -4
-14 -10 -17 -15 -9 -12 -25 5 -25 11 0 14 -7 9 -25 -9 -34 10 -32 36 5 12 17
28 30 36 30 21 0 18 -8 -26 -60 -45 -54 -38 -77 12 -40 16 12 31 20 32 18 15
-24 24 -58 15 -64 -22 -13 -101 8 -150 42 -28 19 -55 34 -60 34 -5 0 -9 -13
-9 -28 0 -28 -24 -72 -33 -62 -5 5 44 222 58 258 5 12 9 11 27 -8 17 -18 19
-26 10 -41z m-52 -245 c-70 -77 -46 -89 37 -18 36 31 59 44 70 40 14 -6 10
-12 -20 -37 -46 -38 -63 -67 -48 -82 7 -7 19 -1 41 21 17 18 34 32 39 32 12 0
35 -160 24 -171 -11 -11 -146 43 -188 76 -52 39 -48 72 16 140 28 30 56 52 61
49 5 -3 -9 -26 -32 -50z m308 -41 c36 -32 79 -70 96 -85 l31 -27 -32 -26 c-18
-15 -33 -35 -33 -46 0 -26 7 -24 51 16 37 33 59 44 59 29 0 -17 -73 -94 -89
-94 -23 0 -102 60 -125 95 -12 19 -46 158 -46 193 0 13 34 -8 88 -55z"/>
<path d="M8564 6582 c4 -6 34 -21 66 -33 33 -12 60 -24 60 -26 0 -3 -29 -2
-64 2 -39 4 -71 3 -82 -3 -27 -15 -14 -18 146 -37 74 -8 155 -18 179 -21 33
-4 42 -2 39 7 -4 13 -32 21 -119 33 -32 5 -48 12 -51 24 -5 18 -74 46 -142 58
-27 5 -37 3 -32 -4z"/>
<path d="M8385 6510 c-7 -12 -5 -12 90 -35 116 -27 205 -55 205 -65 0 -13 -47
-3 -150 30 -87 29 -104 30 -79 6 33 -33 415 -114 436 -93 13 14 -15 28 -81 44
-80 18 -91 39 -13 27 72 -11 127 -11 127 1 0 6 -69 18 -157 27 -87 10 -198 29
-246 43 -96 27 -123 30 -132 15z"/>
<path d="M9623 5954 c-78 -39 -63 -154 22 -170 92 -17 148 95 79 158 -29 25
-65 30 -101 12z"/>
<path d="M10332 4195 c-7 -14 -12 -34 -12 -44 0 -16 58 -81 73 -81 15 0 6 20
-20 45 -38 35 -14 31 42 -6 51 -34 64 -54 46 -72 -6 -6 -11 -17 -11 -24 0 -21
58 -3 90 29 l29 29 -87 42 c-61 30 -93 51 -107 74 -24 39 -29 40 -43 8z"/>
<path d="M8900 3876 c0 -16 27 -57 76 -115 95 -113 129 -131 240 -131 84 0
110 9 101 33 -5 13 -13 13 -49 5 -24 -5 -70 -8 -102 -6 l-59 4 -82 86 c-54 55
-85 96 -90 116 -8 38 -35 43 -35 8z"/>
<path d="M8960 3624 c0 -32 99 -142 175 -194 58 -40 121 -54 217 -47 44 3 82
8 85 11 15 15 -16 20 -110 18 -125 -3 -131 0 -267 127 -55 51 -100 89 -100 85z"/>
<path d="M8620 2769 c0 -20 53 -60 191 -144 134 -80 139 -82 218 -89 77 -7
101 -4 101 13 0 4 -40 12 -89 18 -81 9 -96 14 -177 63 -49 29 -119 75 -156
102 -69 49 -88 57 -88 37z"/>
<path d="M7000 8344 c-54 -132 -60 -177 -25 -182 31 -4 85 34 85 60 0 13 14
52 30 87 29 61 37 126 16 126 -4 0 -23 -41 -41 -91 -18 -50 -41 -107 -52 -125
l-18 -34 -3 32 c-2 22 11 64 37 124 23 50 41 100 41 110 0 44 -21 12 -70 -107z"/>
<path d="M5414 8418 c-16 -12 -31 -23 -33 -24 -2 -2 56 -118 128 -259 139
-271 176 -362 167 -407 -5 -27 6 -38 19 -18 12 20 24 9 50 -47 45 -99 115
-279 115 -296 0 -31 -15 -17 -49 45 -19 35 -36 57 -38 51 -4 -11 14 -85 34
-140 4 -13 -3 -9 -25 11 -38 35 -70 107 -75 171 -5 52 -16 65 -36 41 -13 -15
-4 -43 54 -188 6 -14 2 -18 -18 -18 -14 0 -35 -9 -48 -20 l-24 -19 48 -1 c33
0 53 -6 67 -20 36 -36 21 -83 -26 -80 -49 3 -54 1 -96 -45 -23 -25 -48 -45
-57 -45 -11 0 -12 -3 -4 -11 19 -19 56 -2 81 36 15 25 30 35 47 35 l25 0 -31
-57 c-47 -89 -67 -103 -149 -103 -38 0 -80 -4 -95 -10 -20 -8 -27 -7 -32 5
-10 27 26 55 69 55 35 0 41 4 73 55 38 59 43 75 21 75 -15 0 -58 -51 -69 -82
-4 -12 -17 -18 -36 -18 -45 0 -59 -9 -82 -50 -22 -39 -54 -60 -92 -60 -21 1
-20 2 9 28 17 15 39 32 50 39 17 11 16 12 -14 12 -27 1 -43 -9 -91 -58 -44
-44 -70 -63 -102 -71 -103 -26 -272 -86 -368 -131 -109 -51 -129 -56 -163 -38
-19 10 -20 9 -15 -13 5 -19 0 -31 -21 -50 -66 -61 -118 -74 -167 -42 -28 18
-32 9 -10 -20 19 -25 19 -46 0 -46 -8 0 -19 -9 -25 -21 -9 -16 -14 -18 -25 -9
-11 9 -17 5 -29 -24 -14 -33 -90 -96 -102 -84 -7 8 40 212 90 390 50 173 114
355 186 526 27 63 48 117 46 120 -2 2 -32 -43 -66 -100 -362 -599 -543 -1244
-543 -1943 0 -738 200 -1416 600 -2033 514 -794 1347 -1382 2251 -1591 212
-49 192 -48 192 -8 0 19 -7 40 -15 47 -8 7 -15 25 -15 41 0 30 14 46 25 29 5
-7 11 -5 19 6 10 13 12 0 8 -68 -2 -47 0 -88 4 -91 8 -4 36 -9 129 -20 18 -2
20 5 23 68 3 84 -6 103 -37 83 -12 -7 -24 -24 -27 -38 -7 -36 -27 -73 -41 -78
-10 -3 -13 27 -13 128 0 151 11 186 66 221 19 11 34 25 34 30 0 5 5 9 11 9 19
0 49 -85 43 -119 -6 -26 -4 -30 10 -25 9 3 16 1 16 -5 0 -7 -8 -15 -17 -18
-25 -9 -33 -23 -33 -60 0 -40 9 -46 38 -23 25 20 28 36 10 43 -10 4 -10 7 0
18 11 12 14 12 22 -1 15 -24 12 -46 -20 -138 -17 -47 -28 -92 -26 -99 3 -7 19
-13 35 -13 45 0 75 68 75 175 1 72 -3 88 -37 160 -21 44 -82 145 -136 225 -54
80 -117 183 -140 228 -48 95 -103 255 -122 352 -11 57 -14 61 -19 35 -4 -16
-3 -79 0 -140 6 -86 13 -125 34 -178 16 -38 25 -71 22 -74 -10 -11 -46 29 -66
73 -47 107 -60 246 -34 385 6 34 5 36 -35 51 l-41 16 0 94 c0 93 10 137 24
103 3 -9 6 -36 6 -60 0 -37 5 -47 33 -69 28 -22 33 -35 43 -93 8 -51 13 -63
19 -49 5 11 3 40 -4 70 -28 121 -33 187 -28 396 6 225 16 332 67 695 43 306
53 448 46 610 -8 194 -48 359 -113 473 -27 45 -43 54 -43 23 0 -28 -52 -75
-97 -89 -92 -27 -160 -8 -230 63 -89 91 -102 168 -123 685 -5 142 -16 284 -24
321 -15 67 -51 147 -83 184 -24 27 -73 65 -85 65 -5 0 -6 -93 -2 -225 l7 -226
-112 75 c-61 41 -143 92 -182 113 -52 28 -68 41 -63 53 15 34 15 68 0 133 -23
100 -21 143 9 172 27 28 54 31 94 11 34 -18 106 -96 116 -125 10 -33 25 -25
15 9 -20 70 -71 129 -134 155 -48 20 -85 13 -122 -26 -32 -33 -31 -21 -23
-261 l4 -107 198 -120 c189 -116 216 -130 218 -113 0 4 12 66 27 139 l27 131
-27 31 c-21 23 -28 42 -28 71 0 50 15 51 58 8 41 -43 62 -95 68 -171 10 -102
-15 -181 -112 -359 -102 -187 -118 -228 -134 -333 -38 -250 -192 -438 -550
-670 -56 -37 -104 -64 -106 -62 -10 10 -44 311 -55 492 -17 282 2 635 51 945
34 214 112 329 272 405 108 51 205 60 333 30 28 -6 32 -3 47 28 58 121 15 267
-99 334 -42 25 -58 28 -130 28 -46 0 -83 3 -83 6 0 27 87 186 133 243 l24 30
36 -50 c58 -78 113 -200 141 -313 21 -84 26 -127 26 -225 -1 -67 -5 -141 -10
-166 -4 -25 -7 -47 -4 -49 9 -9 39 28 60 74 46 98 26 252 -60 449 -45 104
-295 672 -501 1136 -64 146 -118 266 -119 268 -2 1 -16 -8 -32 -20z m-54
-1865 c0 -4 -12 -17 -27 -29 -26 -20 -26 -23 -15 -60 14 -48 41 -85 48 -66 3
6 10 12 15 12 6 0 8 -3 5 -8 -8 -14 -65 -315 -81 -429 -27 -199 -37 -466 -25
-670 9 -170 37 -407 60 -506 15 -68 -2 -98 -132 -235 -182 -191 -353 -413
-452 -584 -15 -27 -30 -48 -34 -48 -4 0 -28 35 -54 78 -165 274 -250 549 -349
1123 -27 159 -31 199 -26 294 11 216 87 404 230 569 l33 39 27 -45 c36 -62
137 -151 137 -121 0 8 -76 110 -108 145 -24 26 -24 30 -11 54 7 14 49 59 92
100 163 154 336 265 544 350 112 45 123 49 123 37z m930 -745 c0 -9 -20 -54
-45 -101 -25 -47 -45 -90 -45 -96 0 -24 17 -9 45 39 27 47 45 63 45 41 0 -5
-22 -53 -49 -106 -36 -69 -53 -116 -62 -171 -11 -67 -16 -78 -48 -104 -49 -41
-61 -39 -63 13 -5 138 -5 165 0 195 7 47 18 39 26 -18 4 -27 10 -50 15 -50 14
0 31 51 25 76 -5 19 -3 23 10 18 12 -5 16 0 16 20 0 15 12 55 26 89 22 53 25
66 15 93 -14 38 -14 67 -1 59 6 -3 10 -17 10 -31 0 -13 4 -24 8 -24 12 0 32
22 32 36 0 7 5 25 11 41 8 22 12 24 19 13 6 -8 10 -22 10 -32z m-10 -477 c0
-5 -30 -26 -67 -47 -118 -65 -223 -134 -398 -259 -197 -140 -218 -153 -150
-90 113 105 276 219 485 339 118 67 130 73 130 57z m53 -411 c7 -29 5 -36 -15
-52 -27 -20 -38 -23 -38 -7 0 6 9 13 20 16 26 7 20 27 -9 31 -51 8 -65 -44
-35 -131 18 -54 54 -87 95 -87 34 0 38 19 9 45 -13 12 -18 25 -14 40 3 13 -1
28 -10 38 -21 21 -20 27 4 27 21 0 45 -30 55 -71 15 -59 61 -95 243 -189 175
-90 220 -116 211 -124 -2 -2 -25 -6 -51 -8 -39 -5 -47 -3 -51 13 -3 11 -12 19
-21 19 -9 0 -30 10 -46 22 -24 17 -34 19 -53 11 -17 -8 -29 -7 -48 3 -28 16
-69 18 -69 4 0 -13 75 -63 209 -140 123 -71 147 -93 119 -113 -9 -7 -18 -24
-20 -37 -5 -37 -23 -24 -22 15 1 19 -2 35 -6 35 -4 0 -17 9 -30 20 -22 19 -70
28 -70 12 0 -4 14 -20 30 -35 27 -26 38 -47 25 -47 -15 0 -99 49 -180 104
-148 100 -325 292 -370 400 -20 48 -8 96 40 159 58 75 83 83 98 27z m-964
-277 c-171 -174 -251 -263 -382 -421 -42 -51 -77 -89 -77 -83 0 47 567 671
610 671 8 0 -60 -75 -151 -167z m812 27 c60 -112 240 -296 392 -399 27 -18 96
-57 154 -86 59 -30 110 -60 114 -67 5 -7 9 -31 9 -54 0 -45 -75 -550 -87 -580
-4 -10 -32 -53 -64 -94 -87 -115 -135 -194 -201 -327 -33 -68 -63 -123 -67
-123 -15 0 -254 212 -358 316 -181 183 -313 362 -398 539 -93 194 -125 342
-87 400 44 68 247 301 392 448 l155 159 8 -38 c4 -20 21 -62 38 -94z m-643
-638 c5 -55 -6 -71 -66 -104 -18 -9 -32 -24 -32 -33 0 -12 13 -7 52 20 29 19
58 35 65 35 14 0 28 -43 20 -64 -3 -7 -51 -49 -106 -92 -55 -44 -100 -83 -100
-87 -1 -13 72 31 150 91 39 29 72 52 73 50 2 -2 24 -42 49 -89 152 -282 400
-571 660 -768 59 -45 100 -83 103 -98 4 -15 -8 -54 -34 -116 -77 -174 -150
-421 -174 -582 -6 -47 -15 -85 -18 -85 -12 0 -59 55 -85 100 l-26 45 6 -42 c7
-44 -8 -61 -20 -23 -4 13 -14 19 -28 18 -26 -2 -169 98 -384 270 -185 149
-335 290 -369 349 l-26 43 21 29 c12 16 21 32 21 35 0 13 -31 5 -36 -9 -10
-25 -22 -17 -45 28 -86 167 -61 415 72 725 78 182 224 430 243 412 5 -5 11
-31 14 -58z"/>
<path d="M4893 6216 c9 -23 311 -425 320 -426 25 -1 12 37 -35 96 -226 291
-305 383 -285 330z"/>
<path d="M4750 6103 c0 -25 407 -533 427 -533 11 0 13 4 6 13 -6 6 -68 86
-138 177 -188 242 -274 348 -285 355 -5 3 -10 -2 -10 -12z"/>
<path d="M4460 5790 c0 -12 9 -39 21 -62 21 -40 21 -41 1 -67 -54 -74 -67
-113 -67 -206 0 -111 21 -163 94 -234 74 -72 139 -94 261 -89 113 5 165 25
228 89 117 120 106 296 -29 444 -100 108 -223 136 -361 81 -35 -14 -72 -26
-81 -26 -20 0 -47 38 -47 67 0 13 -4 23 -10 23 -5 0 -10 -9 -10 -20z m379 -86
c129 -53 218 -228 182 -359 -26 -97 -128 -165 -260 -173 -99 -6 -162 19 -225
89 -117 131 -98 334 40 419 75 47 183 56 263 24z"/>
<path d="M4892 4928 c3 -7 20 -15 39 -18 40 -6 40 0 10 -160 -29 -159 -51
-353 -40 -364 5 -5 12 1 17 15 17 45 34 159 28 183 -3 14 3 62 14 108 10 46
23 116 28 156 8 65 7 74 -9 83 -27 14 -92 12 -87 -3z"/>
<path d="M5435 3251 c-68 -31 -125 -111 -125 -174 0 -14 -16 -39 -40 -62 -36
-35 -51 -65 -33 -65 4 0 19 11 33 25 l26 25 23 -70 c20 -59 22 -74 12 -96 -13
-30 -7 -44 11 -26 19 19 38 14 92 -23 71 -48 138 -60 225 -39 104 26 107 28
143 101 30 61 33 76 33 158 0 104 -20 155 -79 200 -82 62 -238 85 -321 46z
m252 -59 c23 -12 54 -38 70 -59 24 -31 28 -46 28 -102 0 -114 -64 -219 -149
-242 -55 -15 -138 2 -191 39 -125 87 -128 285 -6 364 43 28 51 29 126 26 56
-3 92 -11 122 -26z"/>
<path d="M8574 8364 c-80 -48 -94 -62 -94 -96 0 -16 -11 -44 -25 -62 -30 -40
-32 -60 -6 -51 11 3 22 1 26 -5 11 -18 23 -2 40 53 32 98 43 114 101 143 53
27 71 54 36 54 -10 0 -45 -16 -78 -36z"/>
<path d="M7420 8329 c-23 -42 -60 -150 -60 -174 0 -29 36 -56 88 -64 45 -8 52
-27 13 -36 -44 -10 -43 -40 2 -32 17 3 41 9 52 13 18 7 18 6 6 -9 -12 -15 -11
-17 8 -17 11 0 27 10 36 23 16 26 65 162 65 184 0 27 -21 11 -42 -32 -26 -53
-40 -58 -38 -12 3 55 2 61 -14 48 -7 -6 -16 -25 -20 -41 -3 -17 -10 -30 -16
-30 -12 0 -13 16 -1 57 5 18 6 35 1 38 -11 7 -40 -34 -40 -57 0 -26 -18 -22
-23 5 -3 19 -4 20 -10 5 -4 -10 -10 -26 -14 -35 -5 -15 -7 -14 -11 5 -2 14 10
50 29 87 30 59 34 95 10 95 -6 0 -15 -9 -21 -21z"/>
<path d="M6339 8175 c-1 -5 0 -20 1 -32 2 -29 -40 -274 -51 -293 -14 -25 -10
69 6 135 17 70 20 144 5 129 -15 -15 -49 -162 -56 -245 -6 -65 -4 -77 10 -82
26 -10 18 -113 -21 -285 -16 -68 -16 -76 0 -125 9 -29 18 -59 20 -67 3 -11 7
-9 16 8 10 19 9 32 -4 71 -12 36 -13 55 -6 75 16 39 35 33 28 -9 -7 -41 8 -47
25 -9 10 20 8 36 -7 81 -23 68 -23 73 22 308 37 198 45 296 25 330 -6 11 -12
16 -13 10z"/>
<path d="M7283 8018 c-73 -71 -87 -91 -87 -132 -1 -25 -19 -40 -174 -146 -165
-112 -237 -168 -228 -178 3 -2 88 53 190 123 209 142 252 164 314 165 36 0 43
3 40 18 -3 11 -12 16 -26 15 -31 -4 -28 4 18 48 35 34 52 69 33 69 -15 0 -73
-52 -93 -85 -24 -39 -40 -45 -40 -15 0 11 32 51 75 94 67 67 79 86 52 86 -5 0
-38 -28 -74 -62z"/>
<path d="M5040 7968 c0 -3 20 -17 43 -33 58 -36 99 -99 95 -145 -2 -24 -7 -34
-17 -32 -8 2 -25 -2 -37 -9 -30 -15 -105 -4 -137 22 -32 24 -34 24 -41 -6 -8
-31 -31 -32 -47 -3 -12 21 -12 21 -27 -8 -8 -16 -35 -50 -59 -77 -58 -63 -76
-107 -76 -187 0 -115 75 -257 163 -312 127 -79 298 -44 377 77 38 57 63 157
63 249 0 60 -3 70 -36 113 -29 38 -35 53 -30 77 7 31 -15 66 -41 66 -17 0 -17
-15 2 -30 19 -16 19 -36 0 -44 -9 -3 -21 4 -29 17 -12 18 -12 32 -3 75 10 47
9 58 -8 90 -25 45 -81 90 -123 98 -17 4 -32 4 -32 2z m127 -304 c104 -53 118
-77 118 -204 0 -86 -3 -100 -29 -148 -34 -61 -80 -99 -144 -118 -126 -38 -220
12 -289 155 -65 133 -48 230 52 306 87 67 174 70 292 9z"/>
<path d="M7259 7766 c-89 -36 -206 -115 -336 -227 -119 -103 -452 -425 -462
-447 -27 -59 -41 -70 519 450 63 60 118 108 121 108 4 0 9 -9 12 -20 5 -18 13
-13 64 39 50 49 67 60 113 70 53 12 80 26 80 42 0 16 -54 9 -111 -15z"/>
<path d="M7396 7752 c-3 -6 -34 -21 -68 -34 -51 -18 -79 -39 -161 -118 -156
-149 -332 -352 -502 -580 -87 -117 -104 -143 -60 -90 220 259 579 647 608 655
12 4 41 28 64 53 69 79 60 38 -13 -54 -38 -47 -76 -95 -84 -107 -14 -19 -13
-19 7 -9 54 29 230 255 221 283 -3 10 -6 10 -12 1z"/>
<path d="M6953 7488 c-58 -57 -147 -151 -199 -210 -52 -59 -103 -110 -113
-113 -11 -3 -24 -19 -31 -35 -7 -16 -23 -36 -36 -45 -23 -15 -34 -55 -15 -55
5 0 24 17 41 38 18 20 115 123 214 227 273 285 281 295 261 295 -10 0 -65 -46
-122 -102z"/>
<path d="M5545 7540 c-4 -6 1 -30 11 -52 13 -29 15 -44 8 -56 -8 -12 -5 -21
15 -38 21 -18 23 -24 13 -37 -11 -13 -24 -11 -105 14 -98 31 -127 35 -127 19
0 -16 232 -84 250 -73 25 16 23 56 -10 139 -35 87 -44 102 -55 84z"/>
<path d="M8489 7248 c-106 -101 -140 -130 -144 -126 -3 3 5 19 19 35 27 32 22
57 -10 51 -25 -4 -116 -137 -112 -163 6 -42 43 -29 135 49 101 84 151 142 136
157 -7 7 -15 6 -24 -3z"/>
<path d="M6620 7040 c-12 -16 -30 -30 -40 -30 -11 0 -25 -10 -31 -22 -6 -12
-31 -45 -55 -75 -24 -29 -47 -66 -51 -81 -3 -15 -15 -39 -26 -54 -12 -16 -17
-34 -13 -44 6 -16 8 -15 27 2 11 10 42 55 69 100 27 44 74 109 105 143 30 34
55 66 55 71 0 22 -20 18 -40 -10z"/>
<path d="M6847 6998 c-81 -96 -265 -414 -249 -430 6 -6 31 30 67 94 32 57 100
165 151 240 95 141 111 190 31 96z"/>
<path d="M11045 6904 c-43 -19 -280 -248 -271 -262 4 -7 12 -12 17 -12 6 0 58
46 117 103 60 56 125 113 145 127 55 37 49 69 -8 44z"/>
<path d="M6957 6714 c-4 -4 -4 -30 -1 -58 6 -49 -9 -116 -23 -102 -4 3 -6 29
-4 56 3 51 -7 62 -29 35 -9 -11 -16 -12 -25 -5 -10 8 -14 4 -19 -16 -4 -15
-20 -46 -35 -68 -15 -23 -35 -52 -45 -66 -9 -14 -23 -35 -32 -47 -9 -12 -13
-27 -9 -33 11 -17 70 45 113 117 20 35 40 63 44 63 4 0 8 -28 8 -61 0 -71 8
-70 60 9 24 36 30 56 30 97 0 50 -18 94 -33 79z"/>
<path d="M11040 6575 c0 -142 -18 -290 -50 -417 -19 -77 -19 -118 0 -118 5 0
14 26 21 58 20 93 29 83 29 -31 0 -59 -3 -107 -6 -107 -3 0 -15 5 -26 11 -19
10 -20 9 -13 -7 4 -11 14 -53 22 -94 16 -81 12 -222 -11 -467 -6 -73 -9 -133
-5 -133 8 0 34 138 51 275 16 129 16 1097 0 1135 -8 20 -11 -3 -12 -105z"/>
<path d="M9490 6656 c0 -25 4 -36 15 -36 8 0 15 9 15 20 0 42 19 18 22 -27 2
-36 7 -49 21 -51 14 -3 17 4 17 44 0 54 17 50 29 -8 6 -26 12 -32 27 -29 10 2
55 6 99 8 44 3 85 9 91 14 7 5 34 5 68 -2 32 -6 64 -8 72 -5 7 3 16 1 19 -3 2
-5 -4 -11 -15 -14 -11 -3 -20 -11 -20 -17 0 -9 20 -10 79 -5 56 5 86 3 102 -6
33 -17 99 -71 99 -80 0 -4 -21 -14 -46 -21 -58 -16 -58 -32 1 -38 41 -5 47 -9
67 -50 23 -44 48 -64 48 -37 0 8 -11 35 -25 61 -22 42 -23 47 -8 53 10 4 23
-2 34 -16 17 -20 20 -21 25 -6 11 27 -15 61 -65 88 -25 14 -57 37 -70 51 -13
14 -54 35 -90 48 -63 22 -141 26 -297 18 -18 -1 -60 13 -102 35 -54 27 -88 38
-142 42 l-70 6 0 -37z"/>
<path d="M7016 6593 c-16 -41 -82 -143 -93 -143 -16 0 -27 -44 -18 -67 6 -16
8 -15 20 7 8 14 14 33 15 42 0 9 9 19 19 23 11 3 26 19 33 35 7 17 16 30 20
30 17 0 7 -29 -24 -71 -25 -34 -32 -54 -32 -86 1 -40 16 -73 34 -73 5 0 6 26
3 58 -5 52 -3 61 21 89 23 27 26 40 26 102 0 68 -10 91 -24 54z"/>
<path d="M10904 6503 c-4 -10 -10 -43 -13 -73 l-6 -55 -62 -24 c-35 -14 -63
-27 -63 -31 0 -3 15 -13 32 -21 19 -8 34 -23 36 -34 7 -48 43 -155 52 -155 15
0 12 52 -5 100 -24 67 -20 97 19 133 31 29 34 38 39 105 5 56 3 72 -8 72 -7 0
-16 -8 -21 -17z"/>
<path d="M11263 6238 c17 -94 20 -161 21 -403 1 -303 -2 -334 -51 -581 -25
-124 -26 -184 -3 -184 5 0 12 10 15 23 14 67 77 577 82 667 8 146 -26 460 -60
558 -22 63 -23 31 -4 -80z"/>
<path d="M11193 5874 c4 -77 13 -182 22 -234 9 -57 13 -118 9 -152 -4 -37 -3
-58 4 -58 5 0 13 7 16 16 20 51 -19 554 -43 562 -12 4 -13 -18 -8 -134z"/>
<path d="M10540 5798 c-38 -104 -115 -262 -138 -282 -21 -19 -22 -18 -62 8
-22 14 -45 26 -51 26 -17 0 64 -88 82 -89 38 -2 109 94 149 199 7 19 26 66 43
103 27 61 29 70 15 83 -13 14 -17 9 -38 -48z"/>
<path d="M7597 3399 c-168 -264 -247 -473 -247 -660 0 -110 15 -169 71 -281
93 -185 123 -319 123 -556 l1 -182 111 0 112 0 11 78 c73 491 37 1042 -101
1522 -41 145 -40 143 -81 79z"/>
<path d="M4792 8907 c-12 -7 -65 -50 -117 -97 -93 -82 -95 -84 -78 -104 43
-52 78 -86 88 -86 6 0 57 44 113 98 101 96 112 114 96 157 -6 15 -54 45 -71
45 -4 -1 -18 -6 -31 -13z"/>
<path d="M4152 8228 c-27 -14 -202 -243 -191 -251 23 -19 119 -87 123 -87 7 0
109 138 147 198 36 56 38 101 6 130 -25 24 -50 27 -85 10z"/>
<path d="M11738 7233 c-38 -14 -68 -30 -68 -35 0 -16 88 -236 105 -262 20 -30
66 -50 95 -41 34 11 53 50 45 91 -8 45 -95 274 -104 273 -3 0 -36 -12 -73 -26z"/>
<path d="M3721 7280 l-123 -5 82 -87 c45 -49 85 -88 89 -88 7 0 86 180 80 183
-2 1 -60 0 -128 -3z"/>
<path d="M3647 3973 c14 -38 30 -81 35 -96 6 -15 13 -27 17 -25 4 2 44 42 89
89 96 101 98 99 -65 99 l-102 0 26 -67z"/>
<path d="M11443 3918 c-21 -22 -133 -249 -133 -269 0 -8 121 -69 137 -69 8 0
102 207 115 254 11 42 10 48 -8 73 -28 38 -81 43 -111 11z"/>
<path d="M4135 3374 c-27 -19 -56 -39 -64 -43 -21 -12 134 -240 179 -264 69
-37 126 19 97 93 -15 40 -148 250 -156 249 -3 0 -28 -16 -56 -35z"/>
<path d="M4670 2655 l-54 -55 89 -90 c125 -125 162 -139 208 -77 31 40 15 70
-91 179 l-97 99 -55 -56z"/>
<path d="M5240 2115 c-145 -66 -163 -251 -34 -363 110 -98 259 -90 341 16 78
102 38 247 -90 326 -58 36 -161 46 -217 21z"/>
</g>
</svg>
